<svg width="90" height="90" viewBox="0 0 90 90" fill="none" xmlns="http://www.w3.org/2000/svg">
<path d="M45 0C20.1488 0 0 20.4642 0 45.7046C0 67.121 14.52 85.0411 34.095 90C33.885 89.383 33.75 88.667 33.75 87.7795V79.9678C31.9238 79.9678 28.8637 79.9678 28.095 79.9678C25.0162 79.9678 22.2787 78.6234 20.9512 76.1248C19.4775 73.3483 19.2225 69.1016 15.57 66.504C14.4862 65.6394 15.3112 64.653 16.56 64.7863C18.8662 65.449 20.7787 67.0563 22.5787 69.4405C24.3712 71.8286 25.215 72.3694 28.5637 72.3694C30.1875 72.3694 32.6175 72.2742 34.905 71.9086C36.135 68.7359 38.2612 65.8146 40.86 64.4359C25.875 62.8705 18.7238 55.2988 18.7238 45.019C18.7238 40.5933 20.58 36.3123 23.7338 32.7055C22.6988 29.1253 21.3975 21.824 24.1313 19.0436C30.8738 19.0436 34.95 23.4846 35.9288 24.6843C39.2888 23.515 42.9787 22.8523 46.8562 22.8523C50.7412 22.8523 54.4462 23.515 57.8137 24.6919C58.7812 23.4998 62.8613 19.0436 69.6188 19.0436C72.3638 21.8278 71.0475 29.1595 70.0012 32.7321C73.1362 36.3314 74.9813 40.6009 74.9813 45.019C74.9813 55.2912 67.8412 62.8591 52.8787 64.4321C56.9962 66.6145 60 72.7465 60 77.3665V87.7795C60 88.1756 59.9138 88.4613 59.8688 88.8003C77.4038 82.5578 90 65.6471 90 45.7046C90 20.4642 69.8512 0 45 0Z" fill="white"/>
</svg>
