<svg width="90" height="90" viewBox="0 0 90 90" fill="none" xmlns="http://www.w3.org/2000/svg">
<path d="M26.2427 0C11.7714 0 0 11.7823 0 26.2573V63.7573C0 78.2286 11.7823 90 26.2573 90H63.7573C78.2286 90 90 78.2177 90 63.7427V26.2427C90 11.7714 78.2177 0 63.7427 0H26.2427ZM71.25 15C73.32 15 75 16.68 75 18.75C75 20.82 73.32 22.5 71.25 22.5C69.18 22.5 67.5 20.82 67.5 18.75C67.5 16.68 69.18 15 71.25 15ZM45 22.5C57.4088 22.5 67.5 32.5912 67.5 45C67.5 57.4088 57.4088 67.5 45 67.5C32.5912 67.5 22.5 57.4088 22.5 45C22.5 32.5912 32.5912 22.5 45 22.5ZM45 30C41.0218 30 37.2064 31.5804 34.3934 34.3934C31.5804 37.2064 30 41.0218 30 45C30 48.9782 31.5804 52.7936 34.3934 55.6066C37.2064 58.4196 41.0218 60 45 60C48.9782 60 52.7936 58.4196 55.6066 55.6066C58.4196 52.7936 60 48.9782 60 45C60 41.0218 58.4196 37.2064 55.6066 34.3934C52.7936 31.5804 48.9782 30 45 30V30Z" fill="white"/>
</svg>
