<svg width="90" height="90" viewBox="0 0 90 90" fill="none" xmlns="http://www.w3.org/2000/svg">
<path d="M81.8182 0H8.18182C3.66136 0 0 3.66136 0 8.18182V81.8182C0 86.3386 3.66136 90 8.18182 90H81.8182C86.3386 90 90 86.3386 90 81.8182V8.18182C90 3.66136 86.3386 0 81.8182 0ZM28.4482 73.6364H16.38V34.8055H28.4482V73.6364ZM22.2914 29.2541C18.4009 29.2541 15.255 26.1 15.255 22.2177C15.255 18.3355 18.405 15.1855 22.2914 15.1855C26.1695 15.1855 29.3236 18.3395 29.3236 22.2177C29.3236 26.1 26.1695 29.2541 22.2914 29.2541ZM73.6527 73.6364H61.5927V54.7527C61.5927 50.2486 61.5109 44.4559 55.3214 44.4559C49.0418 44.4559 48.0764 49.3609 48.0764 54.4255V73.6364H36.0164V34.8055H47.5936V40.1114H47.7573C49.3691 37.0595 53.3045 33.84 59.175 33.84C71.3945 33.84 73.6527 41.8827 73.6527 52.3391V73.6364V73.6364Z" fill="white"/>
</svg>
