<svg width="150" height="150" viewBox="0 0 150 150" fill="#fff" xmlns="http://www.w3.org/2000/svg">
<path d="M11.3926 0.813039L145.473 67.5321C146.828 68.2054 147.973 69.2641 148.774 70.5857C149.575 71.9074 150 73.438 150 75.0005C150 76.563 149.575 78.0936 148.774 79.4153C147.973 80.7369 146.828 81.7956 145.473 82.4689L11.3926 149.188C10.0181 149.873 8.48342 150.133 6.97111 149.936C5.4588 149.74 4.03255 149.096 2.86208 148.08C1.6916 147.064 0.82616 145.72 0.368734 144.208C-0.0886915 142.695 -0.118849 141.078 0.281851 139.548L13.6963 88.3814C13.8605 87.7543 14.1985 87.1914 14.6681 86.7628C15.1377 86.3343 15.7182 86.059 16.3371 85.9714L81.3092 76.7882C81.5808 76.748 81.8378 76.6354 82.0552 76.4614C82.2726 76.2874 82.4431 76.0578 82.5501 75.795L82.6647 75.3845C82.7149 75.0149 82.6435 74.6384 82.4621 74.3163C82.2807 73.9942 82 73.7453 81.6656 73.6101L81.3156 73.5108L16.4071 64.3276C15.7893 64.2387 15.2102 63.9629 14.7418 63.5344C14.2734 63.106 13.9364 62.5437 13.7726 61.9176L0.281851 10.4597C-0.120472 8.92939 -0.0915418 7.31098 0.365195 5.79727C0.821931 4.28356 1.68722 2.93833 2.85801 1.92182C4.0288 0.905313 5.45574 0.26036 6.96888 0.0637794C8.48201 -0.132801 10.0176 0.127278 11.3926 0.813039V0.813039Z" />
</svg>
