<svg width="90" height="90" viewBox="0 0 90 90" fill="#26af80" xmlns="http://www.w3.org/2000/svg">
<path d="M45 0C20.1488 0 0 20.1488 0 45C0 53.442 2.37128 61.3128 6.41602 68.064L0.402832 90L22.8076 84.1187C29.3601 87.844 36.9243 90 45 90C69.8512 90 90 69.8512 90 45C90 20.1488 69.8512 0 45 0ZM29.5972 24.0088C30.3284 24.0088 31.0798 24.0043 31.7285 24.0381C32.531 24.0568 33.4045 24.1156 34.2407 25.9644C35.2345 28.1619 37.3983 33.6746 37.6758 34.2334C37.9533 34.7921 38.1499 35.4504 37.7637 36.1816C37.3962 36.9316 37.205 37.3856 36.665 38.0493C36.1063 38.6943 35.494 39.4954 34.9878 39.9829C34.429 40.5417 33.8521 41.1543 34.4971 42.2681C35.1421 43.3818 37.3821 47.033 40.6934 49.9805C44.9496 53.783 48.5407 54.9515 49.6582 55.5103C50.7757 56.069 51.4229 55.9819 52.0679 55.2319C52.7316 54.5007 54.8555 51.9915 55.6055 50.874C56.3367 49.7565 57.0832 49.9499 58.0957 50.3174C59.1232 50.6849 64.6027 53.3841 65.7202 53.9429C66.8377 54.5016 67.5703 54.7782 67.8516 55.2319C68.1403 55.7007 68.1406 57.9322 67.2144 60.5347C66.2881 63.1334 61.7397 65.6465 59.6997 65.8228C57.641 66.014 55.7196 66.7481 46.3184 63.0469C34.9784 58.5806 27.8268 46.9658 27.2681 46.2158C26.7093 45.4846 22.7271 40.1771 22.7271 34.7021C22.7271 29.2084 25.6075 26.5179 26.6162 25.4004C27.6437 24.2829 28.8472 24.0088 29.5972 24.0088Z" />
</svg>
