<svg width="100" height="100" viewBox="0 0 100 100" fill="none" xmlns="http://www.w3.org/2000/svg">
<path d="M49.8515 0.801514L3.55701 17.0937L10.8719 77.7476L49.9008 99.1984L89.1304 77.4578L96.4429 16.8054L49.8515 0.801514Z" fill="#B3B3B3"/>
<path d="M91.825 20.311L49.7438 5.96021V94.0735L85.0102 74.5555L91.825 20.311Z" fill="#A6120D"/>
<path d="M8.75073 20.5694L15.021 74.8148L49.7429 94.0733V5.9585L8.75073 20.5694Z" fill="#DD1B16"/>
<path d="M61.3274 52.8672L49.7438 58.2844H37.5344L31.7946 72.6391L21.1204 72.8376L49.7438 9.15942L61.3274 52.8672ZM60.2071 50.1399L49.8204 29.5766L41.3 49.786H49.743L60.2071 50.1399Z" fill="#F2F2F2"/>
<path d="M49.7429 9.15942L49.8195 29.5766L59.4874 49.8016H49.764L49.7429 58.2711L63.1874 58.2844L69.4703 72.8391L79.6843 73.0282L49.7429 9.15942Z" fill="#B3B3B3"/>
</svg>
