<svg width="100" height="100" viewBox="0 0 100 100" fill="none" xmlns="http://www.w3.org/2000/svg">
<g clip-path="url(#clip0_33_304)">
<path d="M17.9083 95.8334H83.15C84.7333 95.8542 86.0958 94.6876 86.3583 93.0959L99.9583 7.9834C100.242 6.20423 99.0542 4.5334 97.3125 4.2459L96.75 4.20423L3.24167 4.16673C1.47917 4.1459 0.0166667 5.57506 0 7.3959L0.0375 7.96673L13.6417 92.1167C13.9792 94.2376 15.7875 95.8126 17.9083 95.8334ZM65.5625 34.9584L60.5167 64.9792H39.6833L34.0583 34.9584H65.5625Z" fill="#2680F8"/>
<path d="M50 34.9585H34.0583L39.6834 64.9835H50V34.9585Z" fill="#DEDEDE"/>
<path d="M3.20417 4.1665C1.45833 4.1665 0.0166667 5.58734 0 7.39567L0.0375 7.9665L13.6417 92.1165C13.9792 94.2373 15.7875 95.8123 17.9083 95.8332H50V64.9832H39.6833L34.0583 34.9582H50V4.18734L3.24167 4.1665C3.22917 4.1665 3.21667 4.1665 3.20417 4.1665Z" fill="#216FD8"/>
</g>
<defs>
<clipPath id="clip0_33_304">
<rect width="100" height="100" fill="white"/>
</clipPath>
</defs>
</svg>
