<svg width="600" height="550" viewBox="0 0 600 550" fill="none" xmlns="http://www.w3.org/2000/svg">
<g filter="url(#filter0_d_41_272)">
<path d="M18.2319 420.661C22.6092 471.645 43.0655 496.236 59.5309 501.092L137.886 523.869L181.204 436.373C176.185 428.987 163.288 402.969 151.847 357.986C137.544 301.758 117.503 314.333 106.656 270.29C95.4974 224.979 60.1921 238.6 80.2154 282.592C96.2343 317.786 87.5967 325.848 84.9003 336.728C78.3161 363.297 91.1651 377.072 100.478 389.331C121.002 416.344 132.711 512.568 93.261 442.069C83.5609 429.443 62.884 415.001 18.2319 420.661Z" fill="url(#paint0_linear_41_272)"/>
<path d="M18.2319 420.661C22.6092 471.645 43.0655 496.236 59.5309 501.092L137.886 523.869L181.204 436.373C176.185 428.987 163.288 402.969 151.847 357.986C137.544 301.758 117.503 314.333 106.656 270.29C95.4974 224.979 60.1921 238.6 80.2154 282.592C96.2343 317.786 87.5967 325.848 84.9003 336.728C78.3161 363.297 91.1651 377.072 100.478 389.331C121.002 416.344 132.711 512.568 93.261 442.069C83.5609 429.443 62.884 415.001 18.2319 420.661Z" fill="url(#paint1_linear_41_272)" fill-opacity="0.5"/>
</g>
<path d="M85.674 248.502C96.6824 306.926 141.892 396.112 133.573 467.505" stroke="white" stroke-width="1.134"/>
<g filter="url(#filter1_d_41_272)">
<path d="M617.89 413.695C612.259 464.5 605.084 478.139 588.618 497.119L504.296 527.623L463.153 438.612C468.351 431.409 481.884 405.865 494.429 361.312C510.11 305.621 529.832 318.91 541.759 275.275C554.029 230.383 588.984 245.264 567.885 288.519C551.007 323.124 559.442 331.492 561.869 342.463C567.795 369.256 558.091 389.275 545.001 394.484C531.911 399.694 531.209 438.38 532.636 459.16C542.643 446.888 573.397 406.438 617.89 413.695Z" fill="url(#paint2_linear_41_272)"/>
<path d="M617.89 413.695C612.259 464.5 605.084 478.139 588.618 497.119L504.296 527.623L463.153 438.612C468.351 431.409 481.884 405.865 494.429 361.312C510.11 305.621 529.832 318.91 541.759 275.275C554.029 230.383 588.984 245.264 567.885 288.519C551.007 323.124 559.442 331.492 561.869 342.463C567.795 369.256 558.091 389.275 545.001 394.484C531.911 399.694 531.209 438.38 532.636 459.16C542.643 446.888 573.397 406.438 617.89 413.695Z" fill="url(#paint3_linear_41_272)" fill-opacity="0.5"/>
</g>
<path d="M140.411 311.668C147.691 284.734 194.868 256.24 222.096 246.231L268.044 255.47C276.217 261.116 297.742 274.408 318.459 282.414C344.356 292.422 346.538 343.232 373.341 408.668C394.784 461.017 421.416 467.946 432.052 464.867V501.819C415.886 503.615 377.298 503.358 352.282 487.962C327.266 472.565 302.045 415.34 292.563 388.652C290.577 394.458 288.516 401.161 286.551 408.668C280.424 432.071 289.104 493.864 294.209 521.835H140.411C122.542 472.565 130.838 347.081 140.411 311.668Z" fill="url(#paint4_linear_41_272)"/>
<g filter="url(#filter2_d_41_272)">
<path d="M214.495 175.442C219.565 165.868 230.413 171.094 236.558 176.918L268.824 246.31C262.443 250.092 261.067 274.473 261.177 286.19C231.179 288.739 220.871 272.207 213.175 249.901C218.228 232.977 225.286 204.429 218.43 200.108C211.575 195.786 209.942 184.038 214.495 175.442Z" fill="#EDCCA5"/>
</g>
<g filter="url(#filter3_d_41_272)">
<path d="M266.631 254.89C289.659 253.448 310.521 212.243 306.209 147.762C290.161 130.698 246.121 154.697 225.211 167.602C235.528 207.564 243.707 256.325 266.631 254.89Z" fill="#EECDA6"/>
</g>
<path d="M304.717 152.878C313.978 144.789 315.073 82.3053 279.818 117.114C269.107 104.662 251.982 93.7412 232.087 108.968C207.798 127.559 198.611 165.497 219.896 172.424C236.453 177.813 228.943 193.756 233.608 202.072C247.674 178.33 236.737 178.163 246.216 178.348C238.968 128.765 280.385 174.132 304.717 152.878Z" fill="black" stroke="black" stroke-width="1.89"/>
<g filter="url(#filter4_dd_41_272)">
<path d="M220.008 410.555C208.802 404.402 203.6 359.205 202.4 337.375C199.209 279.333 141.692 287.034 142.543 338.894C142.977 365.352 148.996 426.117 169.601 457.51C190.206 488.904 289.186 492.037 336.1 489.679L334.763 455.155C301.181 442.852 231.213 416.707 220.008 410.555Z" fill="#27BCEC"/>
</g>
<path d="M329.689 457.935L329.398 479.381L355.692 487.474C367.216 491.061 372.677 481.923 381.447 482.362C404.102 483.496 400.231 470.877 384.154 470.072C367.675 466.613 371.405 459.564 386.537 457.015C419.277 451.5 430.231 455.436 397.291 441.74C364.351 428.044 360.152 453.812 353.89 457.64C348.88 460.703 335.669 459.113 329.689 457.935Z" fill="#EBC295"/>
<path d="M564.47 255.235C554.225 319.679 490.193 401.778 507.077 479.657" stroke="white" stroke-width="1.134"/>
<path d="M358.005 509.518H295.372C292.614 509.518 290.379 512.214 290.379 515.54V515.541C290.379 518.867 292.614 521.563 295.372 521.563H358.005C360.762 521.563 362.997 518.867 362.997 515.541V515.54C362.997 512.214 360.762 509.518 358.005 509.518Z" fill="#1D375F"/>
<path d="M368.679 378.039C368.93 375.742 370.554 374.025 372.475 374.025H514.46C516.779 374.025 518.566 376.493 518.254 379.266L502.658 517.838C502.4 520.127 500.779 521.835 498.864 521.835H357.289C354.975 521.835 353.19 519.378 353.493 516.611L368.679 378.039Z" fill="#05285D"/>
<path d="M373.38 378.017C373.64 375.73 375.26 374.025 377.174 374.025H524.65C526.977 374.025 528.766 376.509 528.441 379.288L512.272 517.878C512.006 520.157 510.389 521.853 508.481 521.853H361.43C359.109 521.853 357.321 519.382 357.637 516.607L373.38 378.017Z" fill="#173F7C"/>
<path d="M444.816 471.026C455.39 471.026 463.961 460.686 463.961 447.931C463.961 435.175 455.39 424.835 444.816 424.835C434.243 424.835 425.671 435.175 425.671 447.931C425.671 460.686 434.243 471.026 444.816 471.026Z" fill="white"/>
<path d="M554.581 523.375H68.2986C67.5935 523.375 67.022 524.065 67.022 524.915V532.613C67.022 533.463 67.5935 534.153 68.2986 534.153H554.581C555.286 534.153 555.857 533.463 555.857 532.613V524.915C555.857 524.065 555.286 523.375 554.581 523.375Z" fill="#F1A81A"/>
<path d="M326.117 454.143C326.117 454.143 328.843 454.022 330.584 454.143C332.59 454.284 335.689 454.914 335.689 454.914L337.604 488.786C333.399 489.514 331.614 489.41 327.393 488.786L326.117 454.143Z" fill="#0D7698"/>
<path d="M27.7823 429.136C70.2667 467.304 108.82 511.389 132.271 518.836M613.865 420.317C579.837 441.503 514.844 508.154 514.844 520.104" stroke="white" stroke-width="1.134"/>
<path d="M255.211 3.88441L247.235 12.9708C245.619 14.8119 245.546 17.885 247.072 19.8346C248.598 21.7843 251.146 21.8723 252.762 20.0312L260.738 10.9448C262.355 9.10367 262.427 6.0306 260.901 4.08092C259.375 2.13125 256.828 2.04327 255.211 3.88441Z" fill="#F1A81A"/>
<path d="M233.258 31.2507L225.281 40.3371C223.665 42.1782 223.592 45.2513 225.118 47.201C226.645 49.1507 229.192 49.2386 230.808 47.3975L238.785 38.3111C240.401 36.47 240.474 33.3969 238.947 31.4473C237.421 29.4976 234.874 29.4096 233.258 31.2507Z" fill="#F1A81A"/>
<path d="M252.759 31.2486L260.735 40.335C262.351 42.1761 262.424 45.2492 260.898 47.1988C259.372 49.1485 256.824 49.2365 255.208 47.3954L247.232 38.309C245.616 36.4679 245.543 33.3948 247.069 31.4451C248.595 29.4954 251.143 29.4075 252.759 31.2486Z" fill="#F1A81A"/>
<path d="M230.806 3.88306L238.782 12.9694C240.399 14.8106 240.471 17.8836 238.945 19.8333C237.419 21.783 234.872 21.871 233.255 20.0298L225.279 10.9435C223.663 9.10232 223.59 6.02926 225.116 4.07958C226.642 2.12991 229.19 2.04192 230.806 3.88306Z" fill="#F1A81A"/>
<path d="M427.183 171.614L419.207 180.7C417.591 182.542 417.518 185.615 419.044 187.564C420.57 189.514 423.118 189.602 424.734 187.761L432.71 178.674C434.327 176.833 434.399 173.76 432.873 171.811C431.347 169.861 428.8 169.773 427.183 171.614Z" fill="#F1A81A"/>
<path d="M405.23 198.98L397.254 208.067C395.637 209.908 395.564 212.981 397.091 214.931C398.617 216.88 401.164 216.968 402.78 215.127L410.757 206.041C412.373 204.2 412.446 201.127 410.92 199.177C409.393 197.227 406.846 197.139 405.23 198.98Z" fill="#F1A81A"/>
<path d="M424.731 198.976L432.707 208.062C434.323 209.904 434.396 212.977 432.87 214.926C431.344 216.876 428.796 216.964 427.18 215.123L419.204 206.036C417.588 204.195 417.515 201.122 419.041 199.173C420.567 197.223 423.115 197.135 424.731 198.976Z" fill="#F1A81A"/>
<path d="M402.776 171.61L410.753 180.696C412.369 182.538 412.442 185.611 410.915 187.56C409.389 189.51 406.842 189.598 405.226 187.757L397.249 178.67C395.633 176.829 395.56 173.756 397.086 171.807C398.613 169.857 401.16 169.769 402.776 171.61Z" fill="#F1A81A"/>
<path d="M155.688 136.302L147.711 145.389C146.095 147.23 146.022 150.303 147.549 152.253C149.075 154.202 151.622 154.29 153.238 152.449L161.215 143.363C162.831 141.522 162.904 138.449 161.378 136.499C159.851 134.549 157.304 134.461 155.688 136.302Z" fill="#3D539C"/>
<path d="M133.734 163.669L125.758 172.755C124.142 174.596 124.069 177.669 125.595 179.619C127.121 181.569 129.669 181.657 131.285 179.816L139.261 170.729C140.877 168.888 140.95 165.815 139.424 163.865C137.898 161.916 135.35 161.828 133.734 163.669Z" fill="#3D539C"/>
<path d="M153.238 163.666L161.214 172.752C162.83 174.593 162.903 177.666 161.377 179.616C159.851 181.566 157.303 181.654 155.687 179.813L147.711 170.726C146.095 168.885 146.022 165.812 147.548 163.862C149.074 161.913 151.622 161.825 153.238 163.666Z" fill="#3D539C"/>
<path d="M131.284 136.3L139.26 145.386C140.876 147.228 140.949 150.301 139.423 152.25C137.897 154.2 135.349 154.288 133.733 152.447L125.757 143.361C124.141 141.519 124.068 138.446 125.594 136.497C127.12 134.547 129.668 134.459 131.284 136.3Z" fill="#3D539C"/>
<path d="M405.23 15.3602L397.254 24.4466C395.638 26.2877 395.565 29.3608 397.091 31.3105C398.617 33.2601 401.165 33.3481 402.781 31.507L410.757 22.4206C412.373 20.5795 412.446 17.5064 410.92 15.5568C409.394 13.6071 406.846 13.5191 405.23 15.3602Z" fill="#3D539C"/>
<path d="M383.277 42.7266L375.3 51.813C373.684 53.6541 373.611 56.7272 375.138 58.6769C376.664 60.6265 379.211 60.7145 380.827 58.8734L388.804 49.787C390.42 47.9459 390.493 44.8728 388.967 42.9232C387.44 40.9735 384.893 40.8855 383.277 42.7266Z" fill="#3D539C"/>
<path d="M402.776 42.7242L410.753 51.8106C412.369 53.6517 412.442 56.7248 410.915 58.6745C409.389 60.6242 406.842 60.7121 405.226 58.871L397.249 49.7846C395.633 47.9435 395.56 44.8704 397.086 42.9208C398.613 40.9711 401.16 40.8831 402.776 42.7242Z" fill="#3D539C"/>
<path d="M380.822 15.358L388.799 24.4444C390.415 26.2855 390.488 29.3586 388.962 31.3083C387.435 33.258 384.888 33.3459 383.272 31.5048L375.296 22.4184C373.679 20.5773 373.606 17.5042 375.133 15.5546C376.659 13.6049 379.206 13.5169 380.822 15.358Z" fill="#3D539C"/>
<path d="M561.835 158.372L553.859 167.459C552.242 169.3 552.169 172.373 553.696 174.323C555.222 176.272 557.769 176.36 559.385 174.519L567.362 165.433C568.978 163.592 569.051 160.519 567.525 158.569C565.998 156.619 563.451 156.531 561.835 158.372Z" fill="#3D539C"/>
<path d="M539.88 185.739L531.904 194.825C530.288 196.666 530.215 199.739 531.741 201.689C533.267 203.639 535.815 203.727 537.431 201.886L545.407 192.799C547.024 190.958 547.096 187.885 545.57 185.935C544.044 183.986 541.497 183.898 539.88 185.739Z" fill="#3D539C"/>
<path d="M559.379 185.734L567.355 194.821C568.972 196.662 569.044 199.735 567.518 201.684C565.992 203.634 563.445 203.722 561.828 201.881L553.852 192.795C552.236 190.954 552.163 187.88 553.689 185.931C555.215 183.981 557.763 183.893 559.379 185.734Z" fill="#3D539C"/>
<path d="M537.426 158.368L545.402 167.455C547.018 169.296 547.091 172.369 545.565 174.319C544.039 176.268 541.491 176.356 539.875 174.515L531.899 165.429C530.283 163.588 530.21 160.514 531.736 158.565C533.262 156.615 535.81 156.527 537.426 158.368Z" fill="#3D539C"/>
<defs>
<filter id="filter0_d_41_272" x="16.3429" y="240.368" width="174.308" height="292.948" filterUnits="userSpaceOnUse" color-interpolation-filters="sRGB">
<feFlood flood-opacity="0" result="BackgroundImageFix"/>
<feColorMatrix in="SourceAlpha" type="matrix" values="0 0 0 0 0 0 0 0 0 0 0 0 0 0 0 0 0 0 127 0" result="hardAlpha"/>
<feOffset dx="3.779" dy="3.779"/>
<feGaussianBlur stdDeviation="2.834"/>
<feColorMatrix type="matrix" values="0 0 0 0 0 0 0 0 0 0 0 0 0 0 0 0 0 0 0.25 0"/>
<feBlend mode="normal" in2="BackgroundImageFix" result="effect1_dropShadow_41_272"/>
<feBlend mode="normal" in="SourceGraphic" in2="effect1_dropShadow_41_272" result="shape"/>
</filter>
<filter id="filter1_d_41_272" x="455.595" y="244.792" width="169.853" height="294.723" filterUnits="userSpaceOnUse" color-interpolation-filters="sRGB">
<feFlood flood-opacity="0" result="BackgroundImageFix"/>
<feColorMatrix in="SourceAlpha" type="matrix" values="0 0 0 0 0 0 0 0 0 0 0 0 0 0 0 0 0 0 127 0" result="hardAlpha"/>
<feOffset dy="4.334"/>
<feGaussianBlur stdDeviation="3.779"/>
<feColorMatrix type="matrix" values="0 0 0 0 0 0 0 0 0 0 0 0 0 0 0 0 0 0 0.25 0"/>
<feBlend mode="normal" in2="BackgroundImageFix" result="effect1_dropShadow_41_272"/>
<feBlend mode="normal" in="SourceGraphic" in2="effect1_dropShadow_41_272" result="shape"/>
</filter>
<filter id="filter2_d_41_272" x="204.372" y="170.148" width="64.4512" height="123.86" filterUnits="userSpaceOnUse" color-interpolation-filters="sRGB">
<feFlood flood-opacity="0" result="BackgroundImageFix"/>
<feColorMatrix in="SourceAlpha" type="matrix" values="0 0 0 0 0 0 0 0 0 0 0 0 0 0 0 0 0 0 127 0" result="hardAlpha"/>
<feOffset dx="-5.669" dy="5.669"/>
<feGaussianBlur stdDeviation="0.945"/>
<feComposite in2="hardAlpha" operator="out"/>
<feColorMatrix type="matrix" values="0 0 0 0 0.84209 0 0 0 0 0.616467 0 0 0 0 0.356134 0 0 0 0.25 0"/>
<feBlend mode="normal" in2="BackgroundImageFix" result="effect1_dropShadow_41_272"/>
<feBlend mode="normal" in="SourceGraphic" in2="effect1_dropShadow_41_272" result="shape"/>
</filter>
<filter id="filter3_d_41_272" x="215.486" y="137.539" width="96.6825" height="128.189" filterUnits="userSpaceOnUse" color-interpolation-filters="sRGB">
<feFlood flood-opacity="0" result="BackgroundImageFix"/>
<feColorMatrix in="SourceAlpha" type="matrix" values="0 0 0 0 0 0 0 0 0 0 0 0 0 0 0 0 0 0 127 0" result="hardAlpha"/>
<feOffset dx="-2.167" dy="3.25"/>
<feGaussianBlur stdDeviation="3.779"/>
<feColorMatrix type="matrix" values="0 0 0 0 0.312923 0 0 0 0 0.174155 0 0 0 0 0.0736673 0 0 0 0.5 0"/>
<feBlend mode="hard-light" in2="BackgroundImageFix" result="effect1_dropShadow_41_272"/>
<feBlend mode="normal" in="SourceGraphic" in2="effect1_dropShadow_41_272" result="shape"/>
</filter>
<filter id="filter4_dd_41_272" x="136.864" y="291.18" width="203.016" height="202.896" filterUnits="userSpaceOnUse" color-interpolation-filters="sRGB">
<feFlood flood-opacity="0" result="BackgroundImageFix"/>
<feColorMatrix in="SourceAlpha" type="matrix" values="0 0 0 0 0 0 0 0 0 0 0 0 0 0 0 0 0 0 127 0" result="hardAlpha"/>
<feOffset dx="1.89" dy="1.89"/>
<feGaussianBlur stdDeviation="0.945"/>
<feColorMatrix type="matrix" values="0 0 0 0 0.337255 0 0 0 0 0.8 0 0 0 0 0.94902 0 0 0 1 0"/>
<feBlend mode="normal" in2="BackgroundImageFix" result="effect1_dropShadow_41_272"/>
<feColorMatrix in="SourceAlpha" type="matrix" values="0 0 0 0 0 0 0 0 0 0 0 0 0 0 0 0 0 0 127 0" result="hardAlpha"/>
<feOffset dx="-3.779" dy="-3.779"/>
<feGaussianBlur stdDeviation="0.945"/>
<feColorMatrix type="matrix" values="0 0 0 0 0.337255 0 0 0 0 0.8 0 0 0 0 0.94902 0 0 0 0.5 0"/>
<feBlend mode="normal" in2="effect1_dropShadow_41_272" result="effect2_dropShadow_41_272"/>
<feBlend mode="normal" in="SourceGraphic" in2="effect2_dropShadow_41_272" result="shape"/>
</filter>
<linearGradient id="paint0_linear_41_272" x1="158.559" y1="325.778" x2="61.2581" y2="355.719" gradientUnits="userSpaceOnUse">
<stop offset="0.475" stop-color="#D89920"/>
<stop offset="0.481" stop-color="#F1A81A"/>
</linearGradient>
<linearGradient id="paint1_linear_41_272" x1="83.4238" y1="422.126" x2="18.0564" y2="491.337" gradientUnits="userSpaceOnUse">
<stop offset="0.463" stop-color="#F8B026"/>
<stop offset="0.466" stop-color="#E29705"/>
</linearGradient>
<linearGradient id="paint2_linear_41_272" x1="488.512" y1="328.878" x2="585.328" y2="361.414" gradientUnits="userSpaceOnUse">
<stop offset="0.475" stop-color="#D89920"/>
<stop offset="0.481" stop-color="#F1A81A"/>
</linearGradient>
<linearGradient id="paint3_linear_41_272" x1="561.24" y1="427.877" x2="624.803" y2="499.463" gradientUnits="userSpaceOnUse">
<stop offset="0.192" stop-color="#F8B026"/>
<stop offset="0.289" stop-color="#F8B026"/>
<stop offset="0.336" stop-color="#E29705"/>
</linearGradient>
<linearGradient id="paint4_linear_41_272" x1="153.812" y1="313.977" x2="419.83" y2="352.421" gradientUnits="userSpaceOnUse">
<stop offset="0.069" stop-color="#56CCF2"/>
<stop offset="0.562" stop-color="#43C7F1"/>
<stop offset="0.571" stop-color="#27BCEC"/>
</linearGradient>
</defs>
</svg>
