<svg width="50" height="50" viewBox="0 0 50 50" fill="none" xmlns="http://www.w3.org/2000/svg">
<path d="M46.0498 23.0519L26.9531 3.95036C26.4244 3.42218 25.7077 3.12549 24.9604 3.12549C24.2131 3.12549 23.4964 3.42218 22.9677 3.95036L18.997 7.91813L24.0283 12.9494C26.6709 12.0568 29.1728 14.5871 28.2656 17.215L33.1152 22.0646C36.458 20.9123 39.0898 25.092 36.5791 27.6007C33.9921 30.1877 29.7226 27.3205 31.1103 23.9543L26.5839 19.4338V31.3332C29.0546 32.5578 28.7578 35.4201 27.4707 36.7043C26.8418 37.3328 25.9891 37.6858 25.1001 37.6858C24.211 37.6858 23.3583 37.3328 22.7294 36.7043C21.0136 34.9855 21.6484 32.1232 23.8281 31.2355V19.2238C21.7968 18.3927 21.4257 16.2218 22.0078 14.8293L17.0478 9.86344L3.95015 22.9631C3.42173 23.4916 3.12488 24.2084 3.12488 24.9557C3.12488 25.7031 3.42173 26.4199 3.95015 26.9484L23.0527 46.05C23.5812 46.5781 24.2977 46.8747 25.0449 46.8747C25.792 46.8747 26.5086 46.5781 27.0371 46.05L46.0498 27.0373C46.5782 26.5087 46.875 25.792 46.875 25.0446C46.875 24.2972 46.5782 23.5804 46.0498 23.0519Z" fill="#F4F4F4"/>
</svg>
