<svg width="50" height="50" viewBox="0 0 50 50" fill="none" xmlns="http://www.w3.org/2000/svg">
<path d="M46.0499 23.0517L26.9532 3.95017C26.4245 3.42199 25.7078 3.12531 24.9605 3.12531C24.2132 3.12531 23.4965 3.42199 22.9679 3.95017L18.9971 7.91795L24.0284 12.9492C26.671 12.0566 29.1729 14.5869 28.2657 17.2148L33.1153 22.0644C36.4581 20.9121 39.0899 25.0918 36.5792 27.6006C33.9923 30.1875 29.7227 27.3203 31.1104 23.9541L26.5841 19.4336V31.333C29.0548 32.5576 28.7579 35.4199 27.4708 36.7041C26.8419 37.3326 25.9892 37.6856 25.1002 37.6856C24.2111 37.6856 23.3584 37.3326 22.7296 36.7041C21.0138 34.9853 21.6485 32.123 23.8282 31.2353V19.2236C21.797 18.3926 21.4259 16.2217 22.0079 14.8291L17.0479 9.86326L3.95027 22.9629C3.42185 23.4914 3.125 24.2082 3.125 24.9555C3.125 25.7029 3.42185 26.4197 3.95027 26.9482L23.0528 46.0498C23.5813 46.5779 24.2979 46.8746 25.045 46.8746C25.7921 46.8746 26.5087 46.5779 27.0372 46.0498L46.0499 27.0371C46.5783 26.5086 46.8752 25.7918 46.8752 25.0444C46.8752 24.297 46.5783 23.5803 46.0499 23.0517Z" fill="#344F68"/>
</svg>
