<svg width="100" height="100" viewBox="0 0 100 100" fill="none" xmlns="http://www.w3.org/2000/svg">
<g clip-path="url(#clip0_33_153)">
<path d="M97.4548 45.608L54.3946 2.5502C51.9165 0.0705079 47.8946 0.0705079 45.4126 2.5502L36.4727 11.4924L47.8149 22.8346C50.4516 21.9447 53.4735 22.5416 55.5743 24.6424C57.686 26.7564 58.279 29.8041 57.3657 32.4494L68.2969 43.3822C70.9415 42.4705 73.9938 43.0596 76.1048 45.1752C79.0579 48.126 79.0579 52.9096 76.1048 55.8619C73.1516 58.815 68.3696 58.815 65.4149 55.8619C63.1946 53.64 62.6454 50.3783 63.7704 47.6424L53.5766 37.4479L53.5751 64.2768C54.2954 64.6322 54.9743 65.1072 55.5743 65.7049C58.5266 68.6557 58.5266 73.4377 55.5743 76.3947C52.6219 79.3455 47.8368 79.3455 44.8876 76.3947C41.936 73.4385 41.6938 68.6564 44.6446 65.7049C45.3743 64.976 46.0938 64.4252 46.8751 64.0564V36.9791C46.0938 36.6104 45.3751 36.0635 44.6438 35.3299C42.4087 33.0955 41.9907 29.8143 43.1376 27.0674L32.018 15.8854L2.52272 45.4088C0.0422547 47.8908 0.0578797 51.9127 2.53835 54.3932L45.6055 97.451C48.0844 99.9307 52.1094 99.9307 54.5923 97.451L97.4516 54.5932C99.9321 52.1119 99.9344 48.0877 97.4548 45.608Z" fill="#F34F29"/>
</g>
<defs>
<clipPath id="clip0_33_153">
<rect width="100" height="100" fill="white"/>
</clipPath>
</defs>
</svg>
