<svg width="50" height="50" viewBox="0 0 50 50" fill="none" xmlns="http://www.w3.org/2000/svg">
<g clip-path="url(#clip0_49_277)">
<path d="M33.6426 15.625C32.2266 6.9043 28.8867 0.78125 25 0.78125C21.1133 0.78125 17.7734 6.9043 16.3574 15.625H33.6426ZM15.625 25C15.625 27.168 15.7422 29.248 15.9473 31.25H34.043C34.248 29.248 34.3652 27.168 34.3652 25C34.3652 22.832 34.248 20.752 34.043 18.75H15.9473C15.7422 20.752 15.625 22.832 15.625 25ZM47.334 15.625C44.541 8.99414 38.8867 3.86719 31.9043 1.79688C34.2871 5.09766 35.9277 10.0684 36.7871 15.625H47.334ZM18.0859 1.79688C11.1133 3.86719 5.44922 8.99414 2.66602 15.625H13.2129C14.0625 10.0684 15.7031 5.09766 18.0859 1.79688ZM48.3789 18.75H37.1777C37.3828 20.8008 37.5 22.9004 37.5 25C37.5 27.0996 37.3828 29.1992 37.1777 31.25H48.3691C48.9062 29.248 49.209 27.168 49.209 25C49.209 22.832 48.9062 20.752 48.3789 18.75ZM12.5 25C12.5 22.9004 12.6172 20.8008 12.8223 18.75H1.62109C1.09375 20.752 0.78125 22.832 0.78125 25C0.78125 27.168 1.09375 29.248 1.62109 31.25H12.8125C12.6172 29.1992 12.5 27.0996 12.5 25ZM16.3574 34.375C17.7734 43.0957 21.1133 49.2188 25 49.2188C28.8867 49.2188 32.2266 43.0957 33.6426 34.375H16.3574ZM31.9141 48.2031C38.8867 46.1328 44.5508 41.0059 47.3438 34.375H36.7969C35.9375 39.9316 34.2969 44.9023 31.9141 48.2031ZM2.66602 34.375C5.45898 41.0059 11.1133 46.1328 18.0957 48.2031C15.7129 44.9023 14.0723 39.9316 13.2129 34.375H2.66602Z" fill="#F4F4F4"/>
</g>
<defs>
<clipPath id="clip0_49_277">
<rect width="50" height="50" fill="white"/>
</clipPath>
</defs>
</svg>
