<svg width="76" height="78" viewBox="0 0 76 78" fill="none" xmlns="http://www.w3.org/2000/svg">
<path d="M2.43132 59.3214L30.298 75.5158C30.8886 75.8603 31.8401 75.8603 32.4307 75.5213L74.7731 51.0717C75.3637 50.7326 75.3637 50.1803 74.7731 49.8358L46.9065 33.6415C46.3213 33.3024 45.3698 33.3024 44.7792 33.6415L2.43679 58.0856C1.84618 58.4301 1.84071 58.9824 2.43132 59.3214Z" fill="#AABAFD"/>
<path d="M35.3612 60.9672C35.0282 61.1595 35.0302 61.4727 35.361 61.665L42.2303 65.6569C42.5611 65.8492 43.1018 65.8513 43.4348 65.6591L56.9714 57.8438C57.3044 57.6515 57.3024 57.3383 56.9716 57.146L50.1023 53.1541C49.7715 52.9618 49.2308 52.9596 48.8978 53.1519L35.3612 60.9672Z" fill="#2E4277"/>
<path d="M1.9939 58.7091L1.99937 60.3392C1.99937 60.5579 2.147 60.7821 2.43684 60.9517L30.3035 77.146C30.8941 77.485 31.8456 77.485 32.4362 77.146L74.7787 52.7019C75.074 52.5324 75.2216 52.3082 75.2216 52.0785L75.2161 50.4539C75.2161 50.6781 75.0685 50.9023 74.7732 51.0718L32.4307 75.5214C31.8401 75.8604 30.8886 75.8604 30.298 75.5159L2.43137 59.3216C2.13609 59.1521 1.9939 58.9333 1.9939 58.7091Z" fill="#798FFE"/>
<path d="M44.6969 1.3963C45.287 1.05565 45.7669 1.3291 45.7688 2.00712L45.8443 31.7969C45.8462 32.4709 45.3694 33.3007 44.7794 33.6414L3.04713 57.7333C2.45708 58.0739 1.97719 57.7965 1.97527 57.1224L1.89979 27.3326C1.89787 26.6546 2.37463 25.8288 2.96468 25.4882L44.6969 1.3963Z" fill="#1B2A4F"/>
<path d="M0.778931 26.6834L0.855491 56.472C0.855491 56.8056 0.975811 57.0462 1.1672 57.1556L2.28647 57.8065C2.09504 57.6972 1.97475 57.4565 1.97475 57.1229L1.89819 27.3343C1.89819 26.6562 2.37395 25.8304 2.96456 25.4859L44.697 1.39679C44.9923 1.22727 45.2603 1.21089 45.4571 1.32023L44.3379 0.669338C44.1465 0.559962 43.8731 0.576345 43.5778 0.745865L1.8453 24.8405C1.25469 25.1795 0.778931 26.0053 0.778931 26.6834Z" fill="#384E85"/>
<path d="M3.40588 26.9693L3.47851 55.7481L44.3379 32.1601L44.2653 3.38135L3.40588 26.9693Z" fill="#384E85"/>
<path d="M3.40588 26.9693L3.41808 31.7963L44.2775 8.20839L44.2653 3.38135L3.40588 26.9693Z" fill="#AABAFD"/>
<path d="M37.5283 9.09191C37.9222 8.86449 38.2424 9.03917 38.2437 9.4918C38.245 9.9444 37.9268 10.4955 37.5329 10.723C37.1458 10.9465 36.8255 10.7639 36.8242 10.3113C36.8229 9.85869 37.1411 9.31541 37.5283 9.09191Z" fill="white"/>
<path d="M39.8035 7.77833C40.1906 7.55482 40.5108 7.72951 40.5121 8.18214C40.5134 8.63475 40.1952 9.18587 39.8081 9.40937C39.4142 9.63679 39.0939 9.45427 39.0927 9.00166C39.0914 8.54903 39.4096 8.00575 39.8035 7.77833Z" fill="white"/>
<path d="M42.0718 6.46886C42.4657 6.24144 42.7859 6.41613 42.7872 6.86875C42.7885 7.32136 42.4703 7.87248 42.0764 8.09992C41.6825 8.32734 41.3622 8.14482 41.361 7.69219C41.3597 7.23957 41.6779 6.69629 42.0718 6.46886Z" fill="white"/>
<path d="M10.977 57.3222L8.30225 58.8766L7.15002 58.2114L9.82473 56.657L10.977 57.3222Z" fill="#384E85"/>
<path d="M39.7565 40.5976L37.0781 42.1541L35.9259 41.4889L38.6043 39.9324L39.7565 40.5976Z" fill="#384E85"/>
<path d="M46.9517 36.4162L44.2733 37.9727L43.1211 37.3075L45.7995 35.751L46.9517 36.4162Z" fill="#384E85"/>
<path d="M42.1511 46.1497L39.4764 47.7041L37.0981 46.331L39.7729 44.7766L42.1511 46.1497Z" fill="#384E85"/>
<path d="M55.3436 45.4312L52.6652 46.9877L50.2832 45.6124L52.9616 44.0559L55.3436 45.4312Z" fill="#384E85"/>
<path d="M58.9429 43.3395L56.2645 44.896L50.8838 41.7894L53.5622 40.2329L58.9429 43.3395Z" fill="#384E85"/>
<path d="M49.9502 38.1477L45.0117 41.0176L42.6298 39.6424L47.5682 36.7725L49.9502 38.1477Z" fill="#384E85"/>
<path d="M44.0945 41.5505L41.4162 43.107L39.0342 41.7318L41.7125 40.1753L44.0945 41.5505Z" fill="#384E85"/>
<path d="M52.9453 39.877L46.6676 43.5252L44.2893 42.1521L50.567 38.5039L52.9453 39.877Z" fill="#384E85"/>
<path d="M45.7501 44.0579L43.0718 45.6144L40.6935 44.2413L43.3718 42.6848L45.7501 44.0579Z" fill="#384E85"/>
<path d="M48.7491 45.7896L46.0707 47.346L43.6887 45.9708L46.3671 44.4143L48.7491 45.7896Z" fill="#384E85"/>
<path d="M40.4953 43.6423L37.8169 45.1988L35.4349 43.8236L38.1133 42.2671L40.4953 43.6423Z" fill="#384E85"/>
<path d="M36.1573 42.6892L33.4825 44.2435L32.3303 43.5783L35.005 42.0239L36.1573 42.6892Z" fill="#384E85"/>
<path d="M32.5618 44.7785L29.8834 46.335L28.7312 45.6698L31.4096 44.1133L32.5618 44.7785Z" fill="#384E85"/>
<path d="M34.3592 54.1518L31.6808 55.7084L29.2988 54.3331L31.9772 52.7766L34.3592 54.1518Z" fill="#384E85"/>
<path d="M28.9624 46.8703L26.2877 48.4247L25.1355 47.7595L27.8102 46.2051L28.9624 46.8703Z" fill="#384E85"/>
<path d="M33.3004 47.8235L30.6257 49.3778L28.2437 48.0026L30.9184 46.4482L33.3004 47.8235Z" fill="#384E85"/>
<path d="M25.3668 48.9599L22.6885 50.5164L21.5363 49.8512L24.2146 48.2947L25.3668 48.9599Z" fill="#384E85"/>
<path d="M29.7048 49.9128L27.0264 51.4693L24.6444 50.0941L27.3228 48.5376L29.7048 49.9128Z" fill="#384E85"/>
<path d="M34.9559 50.3306L32.2812 51.885L29.903 50.5119L32.5777 48.9575L34.9559 50.3306Z" fill="#384E85"/>
<path d="M21.771 51.0493L19.0926 52.6058L17.9404 51.9405L20.6188 50.384L21.771 51.0493Z" fill="#384E85"/>
<path d="M26.1089 52.0027L23.4306 53.5592L21.0486 52.184L23.727 50.6274L26.1089 52.0027Z" fill="#384E85"/>
<path d="M37.955 52.062L35.2803 53.6164L32.8983 52.2411L35.573 50.6868L37.955 52.062Z" fill="#384E85"/>
<path d="M31.3604 52.4202L28.682 53.9767L26.3037 52.6036L28.9821 51.0471L31.3604 52.4202Z" fill="#384E85"/>
<path d="M18.172 53.1413L15.4936 54.6978L14.3414 54.0326L17.0198 52.4761L18.172 53.1413Z" fill="#384E85"/>
<path d="M22.5098 54.0942L19.8314 55.6507L17.4495 54.2755L20.1278 52.719L22.5098 54.0942Z" fill="#384E85"/>
<path d="M27.765 54.5101L25.0866 56.0666L22.7084 54.6935L25.3867 53.137L27.765 54.5101Z" fill="#384E85"/>
<path d="M18.9144 56.1838L16.236 57.7403L13.854 56.3651L16.5324 54.8086L18.9144 56.1838Z" fill="#384E85"/>
<path d="M30.7635 56.2414L28.0851 57.7979L25.7031 56.4227L28.3815 54.8662L30.7635 56.2414Z" fill="#384E85"/>
<path d="M24.1658 56.6016L21.4874 58.1581L19.1091 56.785L21.7875 55.2285L24.1658 56.6016Z" fill="#384E85"/>
<path d="M27.1645 58.3328L24.4861 59.8893L22.1041 58.514L24.7825 56.9575L27.1645 58.3328Z" fill="#384E85"/>
<path d="M41.1076 53.7038L27.4845 61.6207L25.1025 60.2454L38.7256 52.3286L41.1076 53.7038Z" fill="#384E85"/>
<path d="M23.5689 60.4224L20.8905 61.9789L18.5085 60.6036L21.1869 59.0471L23.5689 60.4224Z" fill="#384E85"/>
<path d="M20.57 58.6912L14.296 62.3373L11.9177 60.9642L18.1917 57.3181L20.57 58.6912Z" fill="#384E85"/>
<path d="M19.9694 62.5141L17.2947 64.0685L14.9127 62.6933L17.5874 61.1389L19.9694 62.5141Z" fill="#384E85"/>
<path d="M26.5676 62.1538L20.2936 65.7999L17.9116 64.4246L24.1856 60.7786L26.5676 62.1538Z" fill="#384E85"/>
<path d="M14.5762 55.2307L11.8978 56.7872L10.7456 56.1219L13.424 54.5654L14.5762 55.2307Z" fill="#384E85"/>
<path d="M43.3524 38.5078L40.6741 40.0642L39.5219 39.399L42.2002 37.8425L43.3524 38.5078Z" fill="#384E85"/>
<path d="M36.8997 45.7319L34.2213 47.2884L31.8394 45.9132L34.5177 44.3567L36.8997 45.7319Z" fill="#384E85"/>
<path d="M44.5529 51.7019L41.8745 53.2584L39.4926 51.8832L42.1709 50.3267L44.5529 51.7019Z" fill="#384E85"/>
<path d="M41.5543 49.9704L38.8759 51.527L36.4939 50.1517L39.1723 48.5952L41.5543 49.9704Z" fill="#384E85"/>
<path d="M38.5557 48.2393L35.8773 49.7958L33.499 48.4227L36.1774 46.8662L38.5557 48.2393Z" fill="#384E85"/>
<path d="M51.748 47.5208L49.0696 49.0773L46.6876 47.702L49.366 46.1455L51.748 47.5208Z" fill="#384E85"/>
<path d="M48.1485 49.6123L45.4738 51.1667L43.0918 49.7914L45.7665 48.2371L48.1485 49.6123Z" fill="#384E85"/>
<path d="M15.3147 58.2754L11.3008 60.608L8.91882 59.2328L12.9327 56.9001L15.3147 58.2754Z" fill="#384E85"/>
<path d="M7.20405 34.5764C7.72264 34.277 8.02883 34.3425 8.24797 34.541L7.9536 35.0183C7.76534 34.8285 7.52366 34.844 7.22843 35.0144C6.62768 35.3613 6.24667 36.1161 6.24873 36.8418C6.25078 37.5645 6.63485 37.8835 7.23558 37.5367C7.53082 37.3662 7.77178 37.0942 7.95835 36.6939L8.25446 36.8332C8.03717 37.2866 7.73235 37.7049 7.21376 38.0043C6.36656 38.4935 5.79449 38.0732 5.79176 37.1056C5.78902 36.138 6.35685 35.0655 7.20405 34.5764Z" fill="#D9DDF6"/>
<path d="M9.11449 36.1475C9.2893 36.0467 9.43889 36.1318 9.43945 36.3324C9.44003 36.536 9.2914 36.7901 9.11659 36.8909C8.93922 36.9931 8.7922 36.9095 8.79163 36.7059C8.79107 36.5053 8.93712 36.2498 9.11449 36.1475Z" fill="#D9DDF6"/>
<path d="M9.33607 34.015C9.46255 33.7971 9.46276 33.5609 9.33654 33.4875C9.21033 33.414 9.00549 33.5311 8.87902 33.749C8.75255 33.9669 8.75234 34.2031 8.87855 34.2765C9.00476 34.35 9.2096 34.2329 9.33607 34.015Z" fill="#D9DDF6"/>
<path d="M10.0962 31.6062L11.5038 35.5804L11.1572 35.7805L9.74963 31.8063L10.0962 31.6062Z" fill="#D9DDF6"/>
<path d="M12.8392 29.5645L15.2963 30.9677L12.8551 35.199L12.461 34.9744L14.5159 31.4183L12.4476 30.2426L12.8392 29.5645Z" fill="#D9DDF6"/>
<path d="M18.0406 30.9731L18.0435 32.0292L15.4737 33.513L15.4707 32.4568L18.0406 30.9731Z" fill="#D9DDF6"/>
</svg>
