<svg width="208" height="208" viewBox="0 0 208 208" fill="none" xmlns="http://www.w3.org/2000/svg">
<g filter="url(#filter0_d_33_267)">
<rect x="4" width="200" height="200" rx="25" fill="white"/>
<path d="M104 118.813C114.39 118.813 122.813 110.39 122.813 100C122.813 89.6101 114.39 81.1875 104 81.1875C93.6101 81.1875 85.1875 89.6101 85.1875 100C85.1875 110.39 93.6101 118.813 104 118.813Z" fill="#4E8EF7"/>
<path d="M142.391 68.0781C142.393 66.8374 142.037 65.6225 141.367 64.5784C140.697 63.5343 139.74 62.7052 138.611 62.1903C137.483 61.6754 136.229 61.4963 135.002 61.6745C133.774 61.8527 132.623 62.3807 131.688 63.1953C122.366 56.1813 110.732 52.9626 99.1312 54.188C87.5303 55.4135 76.8255 60.9919 69.1754 69.7986C61.5252 78.6053 57.4988 89.9851 57.9079 101.643C58.3171 113.302 63.1314 124.371 71.3801 132.62C79.6288 140.869 90.6983 145.683 102.357 146.092C114.015 146.501 125.395 142.475 134.201 134.825C143.008 127.174 148.587 116.47 149.812 104.869C151.037 93.2679 147.819 81.6338 140.805 72.3125C141.828 71.1392 142.391 69.6349 142.391 68.0781ZM104 144.531C96.9446 144.537 89.9889 142.866 83.7058 139.657C77.4227 136.447 71.9922 131.79 67.8616 126.071C63.7311 120.351 61.0187 113.731 59.9481 106.758C58.8775 99.7838 59.4792 92.6555 61.7036 85.96C63.9281 79.2644 67.7116 73.1933 72.7425 68.2467C77.7734 63.3001 83.9077 59.6197 90.6399 57.5087C97.3721 55.3977 104.509 54.9166 111.464 56.1049C118.419 57.2933 124.991 60.1171 130.641 64.3437C129.758 65.5882 129.344 67.1049 129.472 68.6252C129.601 70.1456 130.263 71.5714 131.342 72.6503C132.421 73.7291 133.847 74.3914 135.367 74.5197C136.887 74.6481 138.404 74.2343 139.648 73.3515C144.591 79.9693 147.596 87.8315 148.327 96.0592C149.058 104.287 147.487 112.556 143.788 119.941C140.089 127.327 134.409 133.538 127.382 137.881C120.356 142.223 112.26 144.526 104 144.531Z" fill="#4E8EF7"/>
</g>
<defs>
<filter id="filter0_d_33_267" x="0" y="0" width="208" height="208" filterUnits="userSpaceOnUse" color-interpolation-filters="sRGB">
<feFlood flood-opacity="0" result="BackgroundImageFix"/>
<feColorMatrix in="SourceAlpha" type="matrix" values="0 0 0 0 0 0 0 0 0 0 0 0 0 0 0 0 0 0 127 0" result="hardAlpha"/>
<feOffset dy="4"/>
<feGaussianBlur stdDeviation="2"/>
<feComposite in2="hardAlpha" operator="out"/>
<feColorMatrix type="matrix" values="0 0 0 0 0 0 0 0 0 0 0 0 0 0 0 0 0 0 0.25 0"/>
<feBlend mode="normal" in2="BackgroundImageFix" result="effect1_dropShadow_33_267"/>
<feBlend mode="normal" in="SourceGraphic" in2="effect1_dropShadow_33_267" result="shape"/>
</filter>
</defs>
</svg>
