<svg width="100" height="100" viewBox="0 0 100 100" fill="none" xmlns="http://www.w3.org/2000/svg">
<path d="M41.0789 52.9819C41.0789 52.9819 38.5133 54.4749 42.9078 54.9796C48.2313 55.5874 50.9524 55.4999 56.818 54.3913C56.818 54.3913 58.3641 55.3577 60.5172 56.1952C47.3641 61.8304 30.7485 55.8687 41.0789 52.9819ZM39.4703 45.6265C39.4703 45.6265 36.5922 47.7585 40.9899 48.2132C46.6774 48.7999 51.1672 48.8483 58.9422 47.3515C58.9422 47.3515 60.0149 48.4421 61.7047 49.0366C45.8047 53.6882 28.0946 49.403 39.4703 45.6265Z" fill="#0074BD"/>
<path d="M53.0195 33.1493C56.2625 36.8821 52.1695 40.2383 52.1695 40.2383C52.1695 40.2383 60.3984 35.9907 56.6195 30.6696C53.0891 25.7094 50.3836 23.2461 65.0344 14.7493C65.0344 14.7493 42.0359 20.4915 53.0195 33.1493Z" fill="#EA2D2E"/>
<path d="M70.4156 58.4226C70.4156 58.4226 72.3156 59.989 68.3234 61.1999C60.7328 63.4992 36.7266 64.1929 30.0586 61.2913C27.6633 60.2484 32.1578 58.8015 33.5711 58.4976C35.0453 58.1781 35.8875 58.2367 35.8875 58.2367C33.2219 56.3593 18.657 61.9234 28.4898 63.5195C55.3055 67.8656 77.3703 61.5617 70.4156 58.4226ZM42.3141 38.0054C42.3141 38.0054 30.1039 40.9062 37.9906 41.9609C41.3219 42.4062 47.9578 42.3038 54.1438 41.7851C59.1977 41.3609 64.2695 40.4538 64.2695 40.4538C64.2695 40.4538 62.4891 41.2179 61.1992 42.0976C48.7977 45.3593 24.8453 43.8398 31.7414 40.5054C37.5719 37.6843 42.3141 38.0054 42.3141 38.0054ZM64.2187 50.2476C76.8242 43.6992 70.9953 37.4054 66.9273 38.2531C65.9328 38.4609 65.4859 38.6406 65.4859 38.6406C65.4859 38.6406 65.857 38.0593 66.5625 37.8101C74.6109 34.982 80.7992 46.1546 63.9672 50.5796C63.9672 50.5796 64.1602 50.4046 64.2187 50.2476Z" fill="#0074BD"/>
<path d="M56.6203 1.02588C56.6203 1.02588 63.6007 8.00947 49.9984 18.7462C39.0906 27.361 47.5109 32.272 49.9937 37.8853C43.6265 32.1399 38.9562 27.0821 42.089 22.3759C46.6898 15.4681 59.4359 12.1173 56.6203 1.02588Z" fill="#EA2D2E"/>
<path d="M43.5539 67.9992C55.6507 68.7726 74.2328 67.5687 74.6726 61.8445C74.6726 61.8445 73.8273 64.014 64.6734 65.7359C54.3468 67.6796 41.6085 67.4539 34.0554 66.207C34.0554 66.207 35.6023 67.4882 43.5539 67.9992Z" fill="#0074BD"/>
<path d="M74.114 78.2664H73.7453V78.0601H74.7375V78.2664H74.3703V79.2953H74.1132L74.114 78.2664ZM76.0945 78.3179H76.0898L75.7242 79.2953H75.5554L75.1921 78.3179H75.1882V79.2953H74.9445V78.0601H75.3015L75.6382 78.9343L75.9757 78.0601H76.3304V79.2953H76.0945V78.3179ZM41.571 89.8726C40.4304 90.8617 39.2242 91.4179 38.1406 91.4179C36.5984 91.4179 35.7617 90.4914 35.7617 89.0078C35.7617 87.4023 36.657 86.2265 40.2445 86.2265H41.5703L41.571 89.8726ZM44.7203 93.4257V82.4281C44.7203 79.6164 43.1164 77.7617 39.2539 77.7617C36.9992 77.7617 35.0226 78.3195 33.4156 79.0289L33.8781 80.9765C35.1437 80.5117 36.7804 80.0804 38.3867 80.0804C40.6132 80.0804 41.5703 80.9765 41.5703 82.8312V84.221H40.4578C35.0507 84.221 32.6109 86.3187 32.6109 89.4734C32.6109 92.1914 34.2187 93.7359 37.246 93.7359C39.1914 93.7359 40.6453 92.9328 42.0023 91.757L42.2492 93.4265L44.7203 93.4257ZM55.2296 93.4257H51.3023L46.575 78.0437H50.0054L52.9398 87.496L53.5921 90.3359C55.0734 86.2281 56.1234 82.0578 56.6484 78.0445H59.9851C59.0921 83.1078 57.4828 88.6679 55.2296 93.4257ZM70.2984 89.8726C69.1539 90.8617 67.9468 91.4179 66.8671 91.4179C65.3234 91.4179 64.4875 90.4914 64.4875 89.0078C64.4875 87.4023 65.3851 86.2265 68.9687 86.2265H70.2976L70.2984 89.8726ZM73.4492 93.4257V82.4281C73.4492 79.6164 71.8406 77.7617 67.9812 77.7617C65.7242 77.7617 63.7484 78.3195 62.1414 79.0289L62.6046 80.9765C63.8703 80.5117 65.5093 80.0804 67.1156 80.0804C69.339 80.0804 70.2984 80.9765 70.2984 82.8312V84.221H69.1859C63.7773 84.221 61.3382 86.3187 61.3382 89.4734C61.3382 92.1914 62.9445 93.7359 65.971 93.7359C67.9171 93.7359 69.3687 92.9328 70.7296 91.757L70.9781 93.4265L73.4492 93.4257ZM29.1578 96.0398C28.2617 97.3515 26.8101 98.3898 25.2226 98.975L23.6687 97.1429C24.8773 96.5226 25.9125 95.5218 26.3945 94.589C26.8101 93.7585 26.9828 92.6906 26.9828 90.1351V72.571H30.3296V89.8937C30.3296 93.3117 30.0578 94.6937 29.1578 96.0398Z" fill="#EA2D2E"/>
</svg>
