<svg width="100" height="100" viewBox="0 0 100 100" fill="none" xmlns="http://www.w3.org/2000/svg">
<path fill-rule="evenodd" clip-rule="evenodd" d="M68.7797 33.4468C70.0336 37.0741 70.9368 40.7772 71.2336 44.6155C71.6024 49.3772 71.4336 54.1054 70.4297 58.789C70.4024 58.9179 70.3446 59.039 70.3016 59.164C69.9868 59.1647 69.6657 59.1257 69.3579 59.1733C66.7571 59.5819 64.1586 60.0054 61.5602 60.4265C58.8743 60.8616 56.1844 61.2796 53.5032 61.7444C52.5532 61.9085 51.3774 61.7124 50.9938 63.0265C50.9829 63.0624 50.8735 63.0687 50.8102 63.089L50.9399 55.2366C50.8954 48.921 50.8516 42.6054 50.8079 36.2897L52.0594 36.0749C54.1063 35.7397 56.1532 35.3999 58.2016 35.0741C60.6461 34.6858 63.093 34.3085 65.5391 33.9296C66.618 33.7616 67.6985 33.6077 68.7797 33.4468Z" fill="#439934"/>
<path fill-rule="evenodd" clip-rule="evenodd" d="M48.2258 85.9799C46.9055 84.8447 45.5391 83.7596 44.2734 82.5658C37.4633 76.1424 32.482 68.5822 30.0289 59.4674C29.3531 56.9588 28.9023 54.4096 28.7578 51.8174C28.6563 50.0033 28.5094 48.1729 28.6375 46.3682C28.9789 41.5682 29.6727 36.8143 31.0805 32.1908L31.1578 32.083C31.2945 32.265 31.4914 32.426 31.5609 32.6314C32.9352 36.6783 34.2992 40.7283 35.6563 44.7807C39.9203 57.515 44.1789 70.2525 48.45 82.9838C48.5336 83.2322 48.75 83.4361 48.9055 83.6604L48.2258 85.9799Z" fill="#45A538"/>
<path fill-rule="evenodd" clip-rule="evenodd" d="M68.7797 33.4469C67.6984 33.6079 66.6172 33.7618 65.5383 33.9282C63.0922 34.3071 60.6453 34.6844 58.2008 35.0727C56.1523 35.3985 54.1054 35.7383 52.0586 36.0735L50.807 36.2883L50.7976 35.4719C50.7562 34.8008 50.6851 34.1305 50.6773 33.4594C50.6234 29.1797 50.5898 24.9 50.5367 20.6204C50.5039 17.9415 50.4547 15.2633 50.4 12.5852C50.3664 10.9211 50.3304 9.2563 50.2554 7.59458C50.2148 6.70161 50.0711 5.81333 50.0125 4.92036C49.9797 4.40708 50.025 3.88989 50.0351 3.37427C50.6734 4.61099 51.2976 5.85708 51.9539 7.08442C52.9906 9.02505 54.6422 10.4547 56.1289 12.0149C62.0062 18.1805 66.1789 25.3493 68.7797 33.4469Z" fill="#46A037"/>
<path fill-rule="evenodd" clip-rule="evenodd" d="M50.8094 63.0881C50.8727 63.0678 50.9828 63.0615 50.993 63.0256C51.3766 61.7115 52.5523 61.9076 53.5023 61.7436C56.1836 61.2795 58.8734 60.8608 61.5594 60.4256C64.1578 60.0045 66.7562 59.5811 69.357 59.1725C69.6648 59.124 69.9859 59.1639 70.3008 59.1631C69.8148 60.8975 69.432 62.6694 68.8156 64.3561C68.1156 66.2694 67.2688 68.1365 66.3695 69.967C65.0258 72.7037 63.3516 75.2561 61.4062 77.5944C59.907 79.3975 58.2359 81.0639 56.5609 82.71C55.6352 83.6201 54.5437 84.3615 53.5281 85.1795L53.2648 84.9998L52.3164 84.1889L51.3352 82.0381C50.6594 79.5201 50.3047 76.9569 50.2461 74.3522L50.2641 73.9139L50.3977 72.0186C50.4422 71.3717 50.5016 70.7256 50.5289 70.0772C50.6297 67.7475 50.7172 65.4178 50.8094 63.0881Z" fill="#409433"/>
<path fill-rule="evenodd" clip-rule="evenodd" d="M50.8094 63.0883C50.7172 65.418 50.6297 67.7477 50.5305 70.0782C50.5032 70.7266 50.4438 71.3727 50.3993 72.0196L49.8016 72.2454C48.4743 68.3375 47.1461 64.4711 45.8469 60.5946C43.6985 54.1813 41.5758 47.7579 39.4305 41.343C37.6985 36.1649 35.9524 30.9922 34.1961 25.8219C34.1141 25.5797 33.8782 25.3907 33.7141 25.1766L37.5391 18.1438C37.6704 18.3719 37.8438 18.5852 37.9266 18.8305C39.6961 24.0672 41.4625 29.3047 43.2141 34.5477C45.4922 41.368 47.7563 48.1938 50.0329 55.0149C50.1235 55.2875 50.2735 55.5391 50.4165 55.8446L50.9399 55.2352C50.8961 57.8532 50.8524 60.4704 50.8094 63.0883Z" fill="#4FAA41"/>
<path fill-rule="evenodd" clip-rule="evenodd" d="M33.7148 25.1772C33.8789 25.3913 34.114 25.5804 34.1969 25.8226C35.9531 30.9929 37.6992 36.1655 39.4312 41.3437C41.5765 47.7585 43.6992 54.1819 45.8476 60.5952C47.1461 64.471 48.4742 68.3382 49.8023 72.246L50.4 72.0202L50.2664 73.9155L50.1453 74.3522C49.9375 76.4272 49.7625 78.5069 49.5094 80.5772C49.382 81.6147 49.1117 82.6335 48.9062 83.6608C48.7515 83.4366 48.5343 83.2327 48.4508 82.9843C44.1797 70.2522 39.9211 57.5155 35.657 44.7812C34.3 40.7288 32.9359 36.6788 31.5617 32.6319C31.4922 32.4265 31.2961 32.2655 31.1586 32.0835C32.0101 29.7812 32.8625 27.4788 33.7148 25.1772Z" fill="#4AA73C"/>
<path fill-rule="evenodd" clip-rule="evenodd" d="M50.9391 55.2359L50.4157 55.8453C50.2727 55.5398 50.1227 55.2875 50.0321 55.0156C47.7563 48.1945 45.4915 41.3687 43.2133 34.5484C41.4618 29.3055 39.6954 24.068 37.9258 18.8312C37.8438 18.5859 37.6704 18.3719 37.5383 18.1445L42.2688 11.9219C42.418 12.1211 42.6305 12.2984 42.7079 12.5227C44.0211 16.3672 45.3227 20.2164 46.6165 24.068C47.825 27.6648 49.0157 31.2672 50.2383 34.8594C50.3204 35.1 50.6055 35.2703 50.7961 35.4734L50.8055 36.2898C50.8508 42.6039 50.8954 48.9203 50.9391 55.2359Z" fill="#57AE47"/>
<path fill-rule="evenodd" clip-rule="evenodd" d="M50.7976 35.4718C50.607 35.2687 50.3218 35.0983 50.2398 34.8577C49.0171 31.2655 47.8265 27.6632 46.6179 24.0663C45.3242 20.2147 44.0226 16.3663 42.7093 12.521C42.632 12.2968 42.4195 12.1194 42.2703 11.9202C43.8085 10.414 45.2992 8.85381 46.8992 7.41709C48.3218 6.14053 49.4656 4.77178 49.5179 2.75459C49.5203 2.671 49.564 2.5874 49.6312 2.35303L50.0367 3.37334C50.0265 3.88975 49.9804 4.40615 50.014 4.91943C50.0726 5.8124 50.2164 6.70068 50.257 7.59365C50.332 9.25537 50.3679 10.9202 50.4015 12.5843C50.4554 15.2624 50.5046 17.9405 50.5382 20.6194C50.5906 24.8991 50.625 29.1788 50.6789 33.4585C50.6851 34.1312 50.7554 34.8007 50.7976 35.4718Z" fill="#60B24F"/>
<path fill-rule="evenodd" clip-rule="evenodd" d="M48.9047 83.6602C49.1101 82.6328 49.3804 81.6133 49.5078 80.5766C49.7617 78.507 49.9359 76.4266 50.1437 74.3516L50.1953 74.3438L50.2469 74.3523C50.3054 76.957 50.6601 79.5203 51.3359 82.0383C51.1984 82.2195 51.0039 82.3812 50.9312 82.5859C50.3633 84.1875 49.8281 85.8016 49.257 87.4031C49.1789 87.6219 48.9617 87.7922 48.8086 87.9844L48.225 85.9797L48.9047 83.6602Z" fill="#A9AA88"/>
<path fill-rule="evenodd" clip-rule="evenodd" d="M48.8093 87.9852C48.9625 87.793 49.1804 87.6227 49.2578 87.4039C49.8289 85.8023 50.3648 84.1891 50.932 82.5867C51.0046 82.382 51.1984 82.2203 51.3367 82.0391L52.3171 84.1906C52.1234 84.4656 51.8562 84.7133 51.7484 85.0195L49.8703 90.5344C49.7929 90.7555 49.5289 90.9117 49.3523 91.0984L48.8093 87.9852Z" fill="#B6B598"/>
<path fill-rule="evenodd" clip-rule="evenodd" d="M49.3523 91.0978C49.5296 90.9118 49.7929 90.7548 49.8703 90.5337L51.7484 85.0188C51.8554 84.7134 52.1234 84.4649 52.3171 84.1899L53.2664 85.0001C52.8078 85.4532 52.5531 85.9767 52.7062 86.6384L52.4179 87.5821C52.2867 87.7438 52.0968 87.8845 52.032 88.0696C51.3765 89.947 50.7507 91.8345 50.0906 93.7118C50.007 93.9501 49.7749 94.1368 49.6109 94.3462C49.5257 93.2626 49.439 92.1813 49.3523 91.0978Z" fill="#C2C1A7"/>
<path fill-rule="evenodd" clip-rule="evenodd" d="M49.6117 94.3461C49.7749 94.1359 50.007 93.9492 50.0914 93.7117C50.7515 91.8352 51.3773 89.9477 52.0328 88.0695C52.0976 87.8852 52.2867 87.7438 52.4187 87.582L52.021 91.9141C51.9148 92.0367 51.7609 92.1437 51.7101 92.2867C51.2609 93.5477 50.8375 94.818 50.3867 96.0789C50.2937 96.3391 50.1156 96.5687 49.9765 96.8117C49.8531 96.65 49.632 96.4937 49.6218 96.325C49.582 95.668 49.6093 95.0062 49.6117 94.3461Z" fill="#CECDB7"/>
<path fill-rule="evenodd" clip-rule="evenodd" d="M49.9758 96.8117C50.1149 96.568 50.293 96.3383 50.386 96.0789C50.8376 94.8188 51.2602 93.5484 51.7094 92.2867C51.7602 92.1437 51.9149 92.0375 52.0204 91.9141L52.0297 94.7578L51.0782 97.1984L49.9758 96.8117Z" fill="#DBDAC7"/>
<path fill-rule="evenodd" clip-rule="evenodd" d="M51.0781 97.1994L52.0297 94.7588L52.2258 97.6463L51.0781 97.1994Z" fill="#EBE9DC"/>
<path fill-rule="evenodd" clip-rule="evenodd" d="M52.7063 86.6393C52.5531 85.9775 52.8071 85.4533 53.2664 85.001L53.5297 85.1807L52.7063 86.6393Z" fill="#CECDB7"/>
<path fill-rule="evenodd" clip-rule="evenodd" d="M50.2469 74.353L50.1954 74.3444L50.1438 74.3522L50.2649 73.9155L50.2469 74.353Z" fill="#4FAA41"/>
</svg>
