<svg width="792" height="516" viewBox="0 0 792 516" fill="none" xmlns="http://www.w3.org/2000/svg">
<g clip-path="url(#clip0_77_666)">
<rect x="266" y="34" width="476" height="289" rx="30" fill="#D5E3FF"/>
<rect x="407" y="65" width="269" height="140" rx="15" fill="#344F68"/>
<rect x="452" y="79" width="201" height="16" rx="2" stroke="#EBEBEB" stroke-width="2"/>
<rect x="460.5" y="113.5" width="26" height="17" rx="2.5" stroke="#EBEBEB"/>
<rect x="492.5" y="113.5" width="26" height="17" rx="2.5" stroke="#EBEBEB"/>
<rect x="523.5" y="113.5" width="26" height="17" rx="2.5" stroke="#EBEBEB"/>
<rect x="554.5" y="113.5" width="26" height="17" rx="2.5" stroke="#EBEBEB"/>
<rect x="585.5" y="113.5" width="26" height="17" rx="2.5" stroke="#EBEBEB"/>
<rect x="460.5" y="135.5" width="120" height="35" rx="2.5" stroke="#EBEBEB"/>
<rect x="585.5" y="135.5" width="58" height="35" rx="2.5" stroke="#EBEBEB"/>
<rect x="616.5" y="113.5" width="26" height="17" rx="2.5" stroke="#EBEBEB"/>
<rect x="452" y="103" width="201" height="78" rx="2" stroke="#EBEBEB" stroke-width="2"/>
<rect x="421" y="79" width="23" height="102" rx="2" stroke="#EBEBEB" stroke-width="2"/>
<rect x="407" y="65" width="269" height="140" rx="15" stroke="#344F68" stroke-width="10"/>
<rect x="445" y="221" width="204" height="32" rx="10" fill="#344F68"/>
<mask id="path-15-inside-1_77_666" fill="white">
<rect x="320" y="66" width="62" height="178" rx="5"/>
</mask>
<rect x="320" y="66" width="62" height="178" rx="5" fill="#344F68"/>
<rect x="332" y="78" width="39" height="19" rx="2" stroke="#EBEBEB" stroke-width="2"/>
<rect x="332" y="101" width="39" height="19" rx="2" stroke="#EBEBEB" stroke-width="2"/>
<circle cx="352.5" cy="134.5" r="7.5" fill="#D9D9D9"/>
<rect x="320" y="66" width="62" height="178" rx="5" stroke="#344F68" stroke-width="20" mask="url(#path-15-inside-1_77_666)"/>
<rect x="96" y="119" width="97.2453" height="279" rx="10" fill="#344F68"/>
<path d="M135.796 187.667H125.69C124.295 187.667 123.164 189.115 123.164 190.901V203.833C123.164 205.619 124.295 207.067 125.69 207.067H135.796C137.192 207.067 138.323 205.619 138.323 203.833V190.901C138.323 189.115 137.192 187.667 135.796 187.667Z" fill="#EBEBEB"/>
<path d="M135.796 207.428H125.691C124.947 207.427 124.233 207.048 123.706 206.374C123.179 205.701 122.883 204.787 122.882 203.834V190.903C122.883 189.95 123.179 189.036 123.706 188.362C124.233 187.688 124.947 187.309 125.691 187.308H135.796C136.541 187.309 137.255 187.688 137.782 188.362C138.308 189.036 138.605 189.95 138.605 190.903V203.834C138.605 204.787 138.308 205.701 137.782 206.374C137.255 207.048 136.541 207.427 135.796 207.428ZM125.691 188.029C125.096 188.029 124.526 188.332 124.105 188.871C123.684 189.409 123.447 190.139 123.447 190.901V203.832C123.447 204.593 123.684 205.323 124.105 205.862C124.526 206.4 125.096 206.703 125.691 206.703H135.796C136.391 206.703 136.962 206.4 137.383 205.862C137.804 205.323 138.04 204.593 138.041 203.832V190.901C138.04 190.139 137.804 189.409 137.383 188.871C136.962 188.332 136.391 188.029 135.796 188.029H125.691Z" fill="#EBEBEB"/>
<path d="M163.445 197.015C163.445 191.658 160.052 187.315 155.866 187.315C151.679 187.315 148.286 191.658 148.286 197.015C148.286 202.372 151.679 206.714 155.866 206.714C160.052 206.714 163.445 202.372 163.445 197.015Z" fill="#EBEBEB"/>
<path d="M155.866 207.075C154.311 207.075 152.791 206.485 151.498 205.38C150.205 204.274 149.197 202.703 148.602 200.865C148.007 199.026 147.851 197.003 148.155 195.052C148.458 193.1 149.207 191.307 150.306 189.9C151.406 188.493 152.807 187.535 154.332 187.147C155.857 186.759 157.438 186.958 158.874 187.72C160.311 188.481 161.539 189.771 162.403 191.425C163.267 193.08 163.728 195.025 163.728 197.015C163.725 199.682 162.896 202.239 161.422 204.125C159.948 206.011 157.95 207.072 155.866 207.075ZM155.866 187.676C154.422 187.676 153.011 188.224 151.811 189.25C150.611 190.276 149.676 191.735 149.124 193.441C148.571 195.147 148.427 197.025 148.708 198.836C148.99 200.648 149.685 202.312 150.705 203.618C151.726 204.924 153.026 205.813 154.442 206.174C155.858 206.534 157.325 206.349 158.658 205.642C159.992 204.935 161.132 203.738 161.933 202.203C162.735 200.667 163.163 198.862 163.163 197.015C163.161 194.539 162.391 192.165 161.023 190.414C159.655 188.664 157.8 187.679 155.866 187.676Z" fill="#EBEBEB"/>
<path d="M125.077 143.141L124.85 169.189L131.065 161.884L139.064 162.067L125.077 143.141Z" fill="#EBEBEB"/>
<path d="M124.85 169.554C124.811 169.554 124.772 169.543 124.737 169.522C124.686 169.494 124.643 169.447 124.613 169.388C124.583 169.328 124.567 169.259 124.567 169.188L124.793 143.141C124.794 143.069 124.811 142.999 124.843 142.94C124.875 142.881 124.92 142.835 124.972 142.809C125.025 142.782 125.082 142.777 125.137 142.792C125.192 142.808 125.242 142.844 125.28 142.896L139.268 161.823C139.306 161.875 139.331 161.94 139.341 162.01C139.35 162.08 139.344 162.152 139.321 162.217C139.301 162.284 139.264 162.341 139.217 162.38C139.169 162.419 139.114 162.438 139.058 162.434L131.172 162.254L125.039 169.461C124.987 169.521 124.92 169.554 124.85 169.554ZM125.351 144.042L125.139 168.362L130.874 161.622C130.928 161.561 130.998 161.527 131.07 161.527L138.397 161.694L125.351 144.042Z" fill="#EBEBEB"/>
<path d="M150.374 143.141L150.147 169.189L156.363 161.884L164.361 162.067L150.374 143.141Z" fill="#EBEBEB"/>
<path d="M150.147 169.554C150.108 169.554 150.07 169.543 150.034 169.522C149.984 169.494 149.941 169.447 149.91 169.388C149.88 169.328 149.864 169.259 149.865 169.188L150.091 143.141C150.091 143.069 150.109 142.999 150.14 142.94C150.172 142.881 150.217 142.835 150.27 142.809C150.322 142.782 150.379 142.777 150.434 142.792C150.489 142.808 150.539 142.844 150.578 142.896L164.566 161.823C164.604 161.875 164.629 161.94 164.639 162.01C164.648 162.08 164.641 162.152 164.619 162.217C164.599 162.285 164.562 162.342 164.515 162.381C164.468 162.42 164.412 162.439 164.356 162.434L156.469 162.254L150.337 169.461C150.285 169.521 150.217 169.554 150.147 169.554ZM150.648 144.042L150.437 168.362L156.172 161.622C156.226 161.562 156.296 161.528 156.368 161.527L163.695 161.694L150.648 144.042Z" fill="#EBEBEB"/>
<path d="M125.388 225.477L124.247 244.444L127.818 247.021L135.629 243.06L136.011 237.732L125.388 225.477Z" fill="#EBEBEB"/>
<path d="M127.818 247.382C127.769 247.382 127.721 247.365 127.679 247.335L124.108 244.759C124.061 244.725 124.023 244.675 123.997 244.614C123.972 244.553 123.961 244.485 123.965 244.416L125.107 225.449C125.111 225.381 125.129 225.317 125.161 225.263C125.192 225.208 125.234 225.166 125.283 225.141C125.332 225.116 125.386 225.109 125.437 225.121C125.489 225.133 125.538 225.163 125.577 225.208L136.201 237.463C136.233 237.501 136.259 237.548 136.274 237.6C136.29 237.652 136.297 237.709 136.293 237.765L135.911 243.093C135.906 243.159 135.887 243.223 135.856 243.276C135.824 243.33 135.782 243.371 135.734 243.395L127.922 247.356C127.889 247.373 127.853 247.381 127.818 247.382ZM124.544 244.242L127.841 246.621L135.366 242.805L135.719 237.878L125.628 226.237L124.544 244.242Z" fill="#EBEBEB"/>
<path d="M128.798 236.869C128.742 236.869 128.687 236.847 128.64 236.806C128.593 236.766 128.557 236.708 128.536 236.641L125.126 225.612C125.11 225.568 125.102 225.52 125.102 225.471C125.101 225.423 125.108 225.374 125.123 225.329C125.137 225.284 125.158 225.244 125.185 225.209C125.212 225.175 125.245 225.148 125.28 225.13C125.315 225.113 125.353 225.104 125.391 225.105C125.429 225.106 125.466 225.117 125.501 225.138C125.536 225.158 125.567 225.187 125.592 225.223C125.618 225.258 125.638 225.301 125.65 225.346L129.061 236.377C129.078 236.432 129.084 236.491 129.079 236.549C129.074 236.608 129.058 236.664 129.032 236.713C129.006 236.762 128.971 236.801 128.931 236.829C128.89 236.857 128.845 236.871 128.798 236.871V236.869Z" fill="#EBEBEB"/>
<path d="M129.32 240.603C130.368 240.603 131.217 239.516 131.217 238.174C131.217 236.833 130.368 235.745 129.32 235.745C128.271 235.745 127.422 236.833 127.422 238.174C127.422 239.516 128.271 240.603 129.32 240.603Z" fill="#EBEBEB"/>
<path d="M129.32 240.964C128.888 240.964 128.467 240.801 128.108 240.494C127.75 240.188 127.47 239.752 127.305 239.242C127.14 238.733 127.097 238.172 127.181 237.63C127.265 237.089 127.472 236.592 127.777 236.202C128.082 235.811 128.471 235.546 128.893 235.438C129.316 235.33 129.755 235.386 130.153 235.597C130.552 235.808 130.892 236.165 131.132 236.624C131.371 237.083 131.499 237.622 131.499 238.174C131.499 238.914 131.269 239.623 130.86 240.146C130.452 240.669 129.897 240.963 129.32 240.964ZM129.32 236.107C129 236.107 128.688 236.228 128.422 236.456C128.156 236.683 127.949 237.006 127.826 237.383C127.704 237.761 127.672 238.177 127.734 238.578C127.797 238.979 127.951 239.348 128.177 239.637C128.403 239.926 128.69 240.123 129.004 240.203C129.317 240.283 129.642 240.242 129.938 240.085C130.233 239.928 130.485 239.663 130.663 239.323C130.84 238.983 130.935 238.583 130.935 238.174C130.934 237.626 130.764 237.101 130.461 236.714C130.158 236.326 129.748 236.108 129.32 236.107Z" fill="#EBEBEB"/>
<path d="M125.97 247.689L137.148 242.021C137.343 241.922 137.562 241.924 137.756 242.028C137.95 242.131 138.105 242.328 138.188 242.575L139.001 245C139.043 245.128 139.065 245.265 139.066 245.404C139.066 245.543 139.045 245.681 139.002 245.809C138.96 245.937 138.898 246.053 138.82 246.15C138.743 246.247 138.65 246.323 138.549 246.373L127.333 251.954C127.137 252.052 126.919 252.048 126.726 251.943C126.532 251.838 126.378 251.641 126.296 251.394L125.523 249.054C125.48 248.927 125.459 248.791 125.458 248.653C125.458 248.515 125.48 248.378 125.521 248.251C125.563 248.124 125.624 248.008 125.701 247.912C125.779 247.815 125.87 247.74 125.97 247.689Z" fill="#EBEBEB"/>
<path d="M152.227 228.321L151.151 246.21L154.519 248.641L161.888 244.904L162.248 239.88L152.227 228.321Z" fill="#EBEBEB"/>
<path d="M154.519 249.002C154.471 249.002 154.423 248.985 154.38 248.955L151.013 246.525C150.966 246.491 150.927 246.441 150.902 246.381C150.877 246.32 150.866 246.251 150.87 246.183L151.946 228.293C151.95 228.225 151.968 228.161 152 228.106C152.031 228.052 152.073 228.009 152.122 227.984C152.172 227.959 152.225 227.952 152.277 227.964C152.329 227.976 152.377 228.007 152.417 228.052L162.437 239.61C162.469 239.648 162.495 239.695 162.511 239.747C162.527 239.799 162.533 239.856 162.529 239.912L162.169 244.937C162.164 245.003 162.145 245.067 162.113 245.12C162.082 245.174 162.04 245.215 161.991 245.239L154.623 248.976C154.59 248.992 154.555 249.001 154.519 249.002ZM151.446 246.009L154.541 248.241L161.622 244.651L161.954 240.027L152.465 229.08L151.446 246.009Z" fill="#EBEBEB"/>
<path d="M155.444 239.086C155.387 239.086 155.332 239.064 155.285 239.023C155.239 238.983 155.202 238.925 155.182 238.858L151.964 228.455C151.936 228.366 151.937 228.266 151.967 228.178C151.997 228.091 152.053 228.021 152.122 227.986C152.192 227.951 152.27 227.952 152.338 227.99C152.407 228.029 152.461 228.1 152.489 228.189L155.707 238.592C155.72 238.636 155.727 238.683 155.726 238.73C155.726 238.778 155.718 238.825 155.703 238.868C155.688 238.912 155.667 238.951 155.64 238.984C155.614 239.017 155.582 239.043 155.548 239.061C155.515 239.077 155.48 239.086 155.444 239.086Z" fill="#EBEBEB"/>
<path d="M155.936 242.587C156.924 242.587 157.726 241.562 157.726 240.297C157.726 239.032 156.924 238.006 155.936 238.006C154.947 238.006 154.146 239.032 154.146 240.297C154.146 241.562 154.947 242.587 155.936 242.587Z" fill="#EBEBEB"/>
<path d="M155.936 242.95C155.526 242.95 155.125 242.795 154.784 242.503C154.444 242.212 154.178 241.798 154.021 241.313C153.864 240.828 153.823 240.295 153.903 239.781C153.983 239.266 154.181 238.794 154.47 238.423C154.76 238.052 155.129 237.8 155.531 237.697C155.933 237.595 156.35 237.647 156.729 237.848C157.108 238.049 157.431 238.389 157.659 238.825C157.887 239.261 158.008 239.774 158.008 240.298C158.008 241.001 157.789 241.675 157.4 242.173C157.012 242.67 156.485 242.949 155.936 242.95ZM155.936 238.369C155.638 238.369 155.346 238.482 155.098 238.694C154.85 238.906 154.657 239.207 154.543 239.56C154.429 239.912 154.399 240.3 154.457 240.675C154.515 241.049 154.659 241.393 154.87 241.663C155.08 241.932 155.349 242.116 155.642 242.191C155.934 242.265 156.237 242.227 156.513 242.081C156.788 241.935 157.024 241.687 157.189 241.37C157.355 241.053 157.444 240.68 157.444 240.298C157.443 239.786 157.285 239.296 157.002 238.933C156.719 238.571 156.336 238.368 155.936 238.367V238.369Z" fill="#EBEBEB"/>
<path d="M152.777 249.271L163.319 243.925C163.503 243.832 163.709 243.834 163.892 243.932C164.076 244.03 164.222 244.215 164.3 244.448L165.066 246.736C165.107 246.856 165.128 246.986 165.128 247.117C165.128 247.248 165.108 247.377 165.068 247.498C165.029 247.618 164.971 247.727 164.897 247.819C164.824 247.91 164.737 247.981 164.642 248.029L154.063 253.293C153.878 253.386 153.673 253.382 153.49 253.283C153.308 253.184 153.162 252.998 153.085 252.765L152.356 250.558C152.316 250.439 152.295 250.31 152.295 250.18C152.295 250.05 152.315 249.921 152.354 249.801C152.394 249.681 152.451 249.573 152.524 249.482C152.596 249.391 152.682 249.319 152.777 249.271Z" fill="#EBEBEB"/>
<path d="M159.514 230.061C159.439 230.061 159.367 230.023 159.314 229.955C159.261 229.887 159.231 229.796 159.231 229.7V222.73C159.231 222.634 159.261 222.542 159.314 222.475C159.367 222.407 159.439 222.369 159.514 222.369C159.589 222.369 159.66 222.407 159.713 222.475C159.766 222.542 159.796 222.634 159.796 222.73V229.7C159.796 229.796 159.766 229.887 159.713 229.955C159.66 230.023 159.589 230.061 159.514 230.061Z" fill="#EBEBEB"/>
<path d="M162.237 226.576H156.79C156.715 226.576 156.643 226.538 156.59 226.47C156.537 226.403 156.508 226.311 156.508 226.215C156.508 226.119 156.537 226.027 156.59 225.959C156.643 225.892 156.715 225.854 156.79 225.854H162.236C162.311 225.854 162.383 225.892 162.436 225.959C162.489 226.027 162.519 226.119 162.519 226.215C162.519 226.311 162.489 226.403 162.436 226.47C162.383 226.538 162.311 226.576 162.236 226.576H162.237Z" fill="#EBEBEB"/>
<path d="M125.593 291.015C125.222 291.016 124.857 290.891 124.535 290.654C124.045 290.293 123.688 289.699 123.541 289.001C123.394 288.303 123.469 287.559 123.751 286.932L129.467 274.226C129.504 274.143 129.566 274.082 129.638 274.057C129.71 274.032 129.787 274.045 129.852 274.092L133.055 276.451C133.119 276.498 133.166 276.576 133.186 276.667C133.205 276.76 133.195 276.858 133.158 276.941L127.443 289.647C127.256 290.063 126.987 290.409 126.662 290.649C126.337 290.89 125.968 291.016 125.593 291.015ZM124.816 290.026C125.176 290.29 125.603 290.361 126.004 290.223C126.404 290.085 126.746 289.749 126.953 289.289L132.527 276.897L129.815 274.899L124.241 287.291C124.034 287.752 123.978 288.299 124.086 288.812C124.194 289.325 124.457 289.761 124.816 290.026Z" fill="#EBEBEB"/>
<path d="M134.768 274.642L130.215 271.288C129.534 270.787 128.665 271.087 128.273 271.957L128.273 271.958C127.882 272.829 128.116 273.941 128.796 274.442L133.349 277.795C134.03 278.296 134.899 277.997 135.29 277.126L135.291 277.125C135.682 276.255 135.448 275.143 134.768 274.642Z" fill="#EBEBEB"/>
<path d="M134.367 268.796C134.727 269.061 134.99 269.498 135.098 270.011C135.206 270.525 135.15 271.072 134.943 271.532L133.14 275.539L130.425 273.54L132.228 269.533C132.33 269.305 132.467 269.104 132.63 268.944C132.793 268.783 132.979 268.666 133.178 268.597C133.377 268.529 133.584 268.511 133.788 268.545C133.992 268.579 134.188 268.664 134.367 268.796Z" fill="#EBEBEB"/>
<path d="M156.616 289.657C155.545 289.661 154.485 289.393 153.495 288.87C152.506 288.347 151.607 287.578 150.851 286.608C150.799 286.54 150.77 286.449 150.771 286.355C150.772 286.26 150.801 286.169 150.853 286.102C150.906 286.035 150.976 285.997 151.05 285.996C151.124 285.995 151.196 286.031 151.249 286.097C152.315 287.456 153.671 288.38 155.147 288.752C156.623 289.124 158.152 288.928 159.541 288.188C160.93 287.448 162.116 286.197 162.949 284.595C163.783 282.992 164.226 281.109 164.223 279.184C164.22 277.259 163.772 275.378 162.933 273.78C162.095 272.181 160.906 270.936 159.515 270.203C158.124 269.47 156.594 269.281 155.119 269.66C153.644 270.039 152.29 270.97 151.229 272.334C151.176 272.4 151.104 272.436 151.03 272.436C150.956 272.435 150.885 272.397 150.833 272.33C150.781 272.263 150.751 272.173 150.75 272.078C150.749 271.983 150.778 271.892 150.829 271.824C151.777 270.606 152.946 269.706 154.231 269.204C155.516 268.702 156.877 268.613 158.196 268.945C159.514 269.277 160.748 270.02 161.788 271.108C162.828 272.197 163.642 273.596 164.159 275.183C164.675 276.771 164.878 278.496 164.749 280.207C164.62 281.919 164.163 283.563 163.418 284.994C162.674 286.426 161.665 287.6 160.482 288.413C159.298 289.227 157.976 289.654 156.632 289.657H156.616Z" fill="#EBEBEB"/>
<path d="M154.125 273.363C154.109 273.363 154.092 273.361 154.075 273.357L150.674 272.577C150.637 272.568 150.602 272.55 150.57 272.524C150.539 272.497 150.512 272.463 150.491 272.423C150.469 272.383 150.455 272.338 150.448 272.291C150.44 272.244 150.44 272.195 150.448 272.148L151.105 268.056C151.112 268.01 151.127 267.966 151.147 267.927C151.168 267.887 151.195 267.853 151.226 267.827C151.256 267.801 151.291 267.783 151.328 267.774C151.364 267.765 151.401 267.765 151.438 267.775C151.474 267.784 151.509 267.803 151.539 267.829C151.57 267.856 151.596 267.89 151.617 267.93C151.637 267.969 151.651 268.013 151.658 268.06C151.665 268.107 151.665 268.154 151.658 268.201L151.059 271.93L154.176 272.646C154.245 272.662 154.307 272.711 154.35 272.782C154.392 272.854 154.413 272.943 154.407 273.033C154.4 273.123 154.368 273.207 154.316 273.268C154.264 273.328 154.196 273.362 154.126 273.363L154.125 273.363Z" fill="#EBEBEB"/>
<path d="M161.81 325.553H148.219C148.144 325.553 148.073 325.515 148.02 325.447C147.967 325.38 147.937 325.288 147.937 325.192V307.801C147.937 307.705 147.967 307.613 148.02 307.545C148.073 307.478 148.144 307.44 148.219 307.44H161.81C161.885 307.44 161.957 307.478 162.01 307.545C162.063 307.613 162.092 307.705 162.092 307.801V325.192C162.092 325.288 162.063 325.38 162.01 325.447C161.957 325.515 161.885 325.553 161.81 325.553ZM148.502 324.831H161.528V308.162H148.502V324.831Z" fill="#EBEBEB"/>
<path d="M162.729 314.057H155.41C153.704 314.057 152.322 315.826 152.322 318.008V327.374C152.322 329.556 153.704 331.325 155.41 331.325H162.729C164.434 331.325 165.817 329.556 165.817 327.374V318.008C165.817 315.826 164.434 314.057 162.729 314.057Z" fill="#EBEBEB"/>
<path d="M162.73 331.686H155.41C154.516 331.684 153.66 331.23 153.028 330.422C152.396 329.613 152.041 328.517 152.04 327.374V318.008C152.041 316.864 152.396 315.768 153.028 314.96C153.66 314.152 154.516 313.697 155.41 313.696H162.73C163.623 313.697 164.479 314.152 165.111 314.96C165.743 315.769 166.098 316.864 166.099 318.008V327.374C166.098 328.517 165.743 329.613 165.111 330.422C164.479 331.23 163.623 331.684 162.73 331.686ZM155.41 314.42C154.666 314.421 153.953 314.8 153.427 315.473C152.901 316.146 152.605 317.058 152.604 318.01V327.377C152.605 328.328 152.901 329.24 153.427 329.913C153.953 330.586 154.666 330.964 155.41 330.965H162.73C163.473 330.964 164.186 330.586 164.712 329.913C165.238 329.24 165.534 328.328 165.534 327.377V318.008C165.534 317.056 165.238 316.143 164.712 315.47C164.186 314.797 163.473 314.419 162.73 314.418L155.41 314.42Z" fill="#EBEBEB"/>
<path d="M134.233 317.298C134.233 313.201 131.637 309.879 128.436 309.879C125.234 309.879 122.638 313.201 122.638 317.298C122.638 321.395 125.234 324.716 128.436 324.716C131.637 324.716 134.233 321.395 134.233 317.298Z" fill="#EBEBEB"/>
<path d="M128.436 325.077C127.233 325.077 126.058 324.621 125.058 323.766C124.058 322.911 123.279 321.696 122.819 320.275C122.359 318.853 122.238 317.289 122.473 315.78C122.708 314.271 123.287 312.885 124.137 311.797C124.987 310.709 126.07 309.968 127.25 309.668C128.429 309.367 129.651 309.521 130.762 310.11C131.873 310.699 132.822 311.696 133.49 312.976C134.158 314.255 134.515 315.759 134.515 317.298C134.513 319.36 133.872 321.337 132.732 322.796C131.592 324.254 130.047 325.075 128.436 325.077ZM128.436 310.24C127.345 310.24 126.279 310.654 125.372 311.43C124.465 312.205 123.758 313.307 123.341 314.597C122.923 315.886 122.814 317.305 123.027 318.674C123.239 320.043 123.765 321.301 124.536 322.288C125.307 323.275 126.29 323.947 127.36 324.219C128.429 324.491 129.538 324.352 130.546 323.818C131.554 323.283 132.415 322.379 133.021 321.218C133.627 320.058 133.95 318.693 133.95 317.298C133.949 315.427 133.367 313.633 132.333 312.31C131.299 310.987 129.898 310.243 128.436 310.24Z" fill="#EBEBEB"/>
<path d="M131.459 323.624L130.973 323.99L134.849 332.431L135.335 332.065L131.459 323.624Z" fill="#EBEBEB"/>
<path d="M165.34 372.93H150.194V353.55H165.34V372.93ZM150.758 372.207H164.775V354.272H150.758V372.207Z" fill="#EBEBEB"/>
<path d="M150.476 354.272C150.401 354.272 150.33 354.234 150.277 354.167C150.224 354.099 150.194 354.007 150.194 353.911V348.258C150.194 348.162 150.224 348.07 150.277 348.002C150.33 347.935 150.401 347.896 150.476 347.896C150.551 347.896 150.623 347.935 150.676 348.002C150.729 348.07 150.758 348.162 150.758 348.258V353.911C150.758 354.007 150.729 354.099 150.676 354.167C150.623 354.234 150.551 354.272 150.476 354.272Z" fill="#EBEBEB"/>
<path d="M150.428 354.272H146.01C145.935 354.272 145.864 354.234 145.811 354.167C145.758 354.099 145.728 354.007 145.728 353.911C145.728 353.815 145.758 353.724 145.811 353.656C145.864 353.588 145.935 353.55 146.01 353.55H150.428C150.503 353.55 150.575 353.588 150.628 353.656C150.681 353.724 150.711 353.815 150.711 353.911C150.711 354.007 150.681 354.099 150.628 354.167C150.575 354.234 150.503 354.272 150.428 354.272Z" fill="#EBEBEB"/>
<path d="M128.038 374.216H129.232L133.038 351.328H138.598L138.783 350.136H126.486L126.283 351.328H131.815L128.038 374.216Z" fill="#EBEBEB"/>
<path d="M612.499 363.81C612.642 363.791 614.228 390.461 644.79 388.136C665.948 386.529 673.492 363.772 673.977 363.772C671.696 363.281 667.854 362.566 666.841 362.018C663.509 360.203 659.387 358.315 658.313 351.756C657.695 347.976 658.744 328.637 658.421 324.811L625.944 332.163C626.397 340.241 629.573 358.968 618.441 362.282C616.589 362.828 614.593 363.332 612.499 363.81Z" fill="#E98862"/>
<path opacity="0.52" d="M625.488 354.626C625.997 352.964 626.325 351.251 626.465 349.516C626.822 345.559 626.751 341.573 626.252 337.631C632.854 336.728 639.073 333.966 644.203 329.659C644.806 331.917 648.123 341.782 647.204 343.928C645.468 347.985 637.312 354.626 625.488 354.626Z" fill="#0C0C0C"/>
<path d="M614.363 296.553C614.363 296.553 606.677 287.73 607.639 271.269C608.384 258.524 618.042 268.873 618.042 268.873C618.042 268.873 618.666 259.703 624.904 261.913C631.143 264.123 632.854 274.246 632.854 274.246" fill="#0C0C0C"/>
<path d="M657.868 269.806C657.868 269.806 689.017 279.84 668.72 321.208L665.864 320.817L660.069 320.026" fill="#0C0C0C"/>
<path d="M630.073 346.049C642.858 347.502 659.501 342.559 663.187 325.326L666.513 309.777C670.2 292.545 664.26 276.614 648.256 273.094C632.251 269.575 617.299 280.914 613.611 298.147L612.138 305.032C611.673 307.404 611.368 309.806 611.225 312.221C610.802 318.601 610.181 328.302 613.056 335.546C615.774 342.383 621.906 345.123 630.073 346.049Z" fill="#E98862"/>
<path d="M618.102 306.092C619.22 306.092 620.126 305.174 620.126 304.04C620.126 302.907 619.22 301.989 618.102 301.989C616.984 301.989 616.078 302.907 616.078 304.04C616.078 305.174 616.984 306.092 618.102 306.092Z" fill="#0C0C0C"/>
<path d="M637.394 309.234C638.512 309.234 639.418 308.316 639.418 307.182C639.418 306.049 638.512 305.131 637.394 305.131C636.277 305.131 635.371 306.049 635.371 307.182C635.371 308.316 636.277 309.234 637.394 309.234Z" fill="#0C0C0C"/>
<path opacity="0.5" d="M629.448 330.104C626.801 329.881 624.244 329.03 621.981 327.622C621.932 327.595 621.889 327.558 621.854 327.514C621.819 327.47 621.794 327.419 621.779 327.365C621.764 327.31 621.76 327.254 621.767 327.198C621.774 327.142 621.793 327.088 621.821 327.039C621.849 326.99 621.887 326.948 621.931 326.914C621.976 326.881 622.027 326.856 622.081 326.843C622.135 326.83 622.191 326.828 622.246 326.837C622.301 326.846 622.354 326.866 622.401 326.897C627.292 329.81 632.032 330.096 636.109 327.724C636.192 327.674 636.277 327.628 636.364 327.586C636.465 327.548 636.576 327.551 636.675 327.595C636.774 327.638 636.852 327.719 636.893 327.82C636.934 327.92 636.935 328.033 636.895 328.135C636.856 328.236 636.779 328.318 636.682 328.363C636.65 328.379 636.596 328.411 636.523 328.454C634.379 329.705 631.915 330.28 629.448 330.104Z" fill="#0C0C0C"/>
<path opacity="0.52" d="M629.069 334.072C628.589 334.04 628.114 333.966 627.647 333.851C627.54 333.825 627.448 333.758 627.39 333.663C627.332 333.568 627.314 333.453 627.34 333.345C627.365 333.237 627.432 333.143 627.526 333.085C627.62 333.026 627.732 333.008 627.839 333.034C630.648 333.712 632.176 332.567 632.24 332.518C632.327 332.45 632.437 332.419 632.546 332.434C632.655 332.448 632.754 332.505 632.822 332.593C632.889 332.682 632.919 332.793 632.905 332.904C632.891 333.014 632.834 333.115 632.747 333.183C631.659 333.901 630.359 334.215 629.069 334.072Z" fill="#0C0C0C"/>
<path d="M661.07 330.357C665.934 331.427 671.005 327.019 672.06 322.088C673.115 317.157 669.755 313.571 664.889 312.502L661.677 315.255L656.888 329.438L661.07 330.357Z" fill="#E98862"/>
<path d="M657.814 321.413C657.814 321.413 661.077 296.626 654.067 293.607C649.4 291.596 636.184 296.162 625.668 291.789C621.068 289.876 616.283 290.139 615.361 292.335C614.996 293.205 614.633 279.55 624.115 271.201C631.664 264.553 651.638 266.359 660.003 270.775C683.166 283.007 665.679 313.787 665.679 313.787L662.889 321.988L657.814 321.413Z" fill="#0C0C0C"/>
<g opacity="0.52">
<path d="M625.254 323.052C625.242 323.052 625.232 323.052 625.222 323.046C623.654 322.706 621.061 321.958 621.311 320.768C621.52 319.783 626.427 309.723 626.986 308.577C627.009 308.526 627.042 308.48 627.082 308.443C627.122 308.405 627.17 308.376 627.221 308.357C627.273 308.339 627.328 308.331 627.383 308.334C627.438 308.337 627.491 308.352 627.54 308.376C627.589 308.401 627.633 308.436 627.669 308.478C627.705 308.52 627.732 308.569 627.748 308.622C627.765 308.675 627.771 308.731 627.766 308.786C627.761 308.841 627.745 308.895 627.719 308.944C625.541 313.399 622.252 320.269 622.111 320.939C622.206 321.254 623.771 321.881 625.394 322.233C625.496 322.257 625.585 322.319 625.643 322.408C625.701 322.496 625.723 322.604 625.706 322.708C625.688 322.813 625.631 322.906 625.547 322.97C625.463 323.033 625.359 323.061 625.255 323.049L625.254 323.052Z" fill="#0C0C0C"/>
</g>
<path d="M624.996 297.852C623.457 297.057 621.735 296.697 620.011 296.811C619.164 296.861 618.329 297.04 617.534 297.341C616.749 297.637 616.002 298.031 615.314 298.515C615.201 298.59 615.121 298.706 615.091 298.839C615.062 298.973 615.084 299.112 615.154 299.229C615.225 299.346 615.337 299.43 615.467 299.464C615.598 299.498 615.736 299.48 615.853 299.412L615.889 299.392C616.521 298.998 617.199 298.687 617.907 298.465C618.604 298.242 619.332 298.128 620.063 298.126C621.509 298.111 622.934 298.483 624.193 299.206L624.24 299.234C624.418 299.341 624.63 299.372 624.831 299.32C625.031 299.268 625.203 299.137 625.308 298.957C625.413 298.776 625.444 298.561 625.392 298.358C625.341 298.155 625.212 297.981 625.034 297.874L624.996 297.852Z" fill="#0C0C0C"/>
<path d="M636.515 301.061C637.917 300.702 639.388 300.725 640.779 301.129C641.484 301.327 642.155 301.633 642.77 302.035C643.394 302.439 643.967 302.921 644.473 303.47L644.501 303.498C644.596 303.594 644.724 303.648 644.858 303.649C644.992 303.651 645.122 303.6 645.22 303.507C645.318 303.414 645.376 303.286 645.383 303.151C645.39 303.015 645.345 302.882 645.257 302.779C644.719 302.127 644.102 301.547 643.421 301.051C642.734 300.547 641.976 300.15 641.172 299.874C639.539 299.303 637.785 299.188 636.093 299.541C635.894 299.588 635.722 299.713 635.613 299.887C635.504 300.062 635.466 300.273 635.509 300.476C635.552 300.678 635.671 300.855 635.841 300.969C636.012 301.083 636.219 301.125 636.419 301.086L636.459 301.077L636.515 301.061Z" fill="#0C0C0C"/>
<path d="M641.008 274.804C643.2 269.647 642.175 264.243 638.719 262.733C635.263 261.224 630.684 264.18 628.493 269.337C626.301 274.494 627.326 279.898 630.782 281.408C634.238 282.917 638.816 279.96 641.008 274.804Z" fill="#0C0C0C"/>
<path d="M645.397 381.486C666.64 380.471 667.534 362.192 667.534 362.192C667.534 362.192 678.06 362.882 685.057 363.842C696.513 365.413 704.07 369.351 710.084 375.447C715.678 381.118 719.084 387.255 715.48 426.431C712.87 454.793 714.707 517.19 714.707 517.19H586.5C586.5 517.19 578.812 435.41 577.74 422.641C575.695 398.264 574.035 377.029 579.026 371.968C589.29 361.564 609.435 362.192 618.257 362.194C618.401 362.194 616.467 382.868 645.397 381.486Z" fill="#344F68"/>
<path d="M610.273 469.567L591.624 459.047C591.214 458.816 590.761 458.674 590.294 458.63C589.827 458.586 589.357 458.641 588.912 458.792C588.467 458.942 588.058 459.185 587.711 459.505C587.364 459.825 587.086 460.214 586.896 460.649C586.568 461.461 586.55 462.369 586.846 463.194C587.141 464.02 587.728 464.705 588.493 465.116L592.492 467.371L576.705 466.13C574.952 465.961 572.694 466.888 572.637 468.896C572.565 469.666 572.753 470.438 573.17 471.087C573.586 471.735 574.208 472.221 574.932 472.465C574.926 472.482 574.922 472.499 574.92 472.516C574.921 472.529 574.922 472.542 574.924 472.555L572.221 472.294C571.721 472.246 571.216 472.312 570.744 472.487C570.271 472.663 569.844 472.942 569.491 473.306C569.139 473.67 568.871 474.109 568.708 474.591C568.544 475.072 568.488 475.585 568.545 476.092C568.65 476.888 569.021 477.624 569.597 478.176C570.172 478.728 570.918 479.062 571.708 479.124L572.858 479.235C572.87 479.27 572.888 479.303 572.912 479.332C572.117 479.439 571.386 479.83 570.85 480.433C570.313 481.037 570.006 481.814 569.983 482.627C569.984 483.516 570.315 484.372 570.912 485.025C571.508 485.677 572.325 486.077 573.2 486.146L576.057 486.421C576.013 486.446 575.977 486.481 575.95 486.523C575.923 486.565 575.906 486.614 575.901 486.664C575.897 486.723 575.911 486.783 575.941 486.834C575.26 487.13 574.694 487.643 574.329 488.297C573.964 488.95 573.821 489.707 573.922 490.451C574.043 491.23 574.421 491.945 574.993 492.48C575.565 493.014 576.299 493.337 577.075 493.397L601.181 495.721C604.553 496.046 607.944 495.343 610.919 493.701C613.894 492.06 616.318 489.555 617.88 486.508C619.227 483.881 619.51 480.824 618.67 477.989C617.829 475.153 615.931 472.761 613.378 471.321L610.273 469.567Z" fill="#E98862"/>
<g opacity="0.2">
<path d="M590.552 473.773C590.544 473.855 590.504 473.931 590.442 473.984C590.379 474.037 590.299 474.062 590.217 474.056L575.205 472.856C575.164 472.852 575.124 472.841 575.088 472.822C575.051 472.803 575.019 472.777 574.992 472.746C574.966 472.714 574.945 472.677 574.933 472.638C574.92 472.598 574.915 472.556 574.918 472.515C574.922 472.473 574.933 472.433 574.951 472.396C574.97 472.359 574.996 472.326 575.027 472.299C575.058 472.272 575.094 472.251 575.133 472.239C575.172 472.226 575.214 472.221 575.254 472.224L590.267 473.424C590.307 473.428 590.347 473.439 590.384 473.458C590.42 473.477 590.453 473.503 590.479 473.534C590.506 473.566 590.526 473.602 590.538 473.642C590.551 473.681 590.556 473.723 590.553 473.764L590.552 473.773Z" fill="#0C0C0C"/>
<path d="M590.213 480.5C590.204 480.582 590.165 480.657 590.102 480.71C590.04 480.763 589.959 480.789 589.878 480.782L573.124 479.443C573.083 479.44 573.044 479.428 573.007 479.41C572.971 479.391 572.938 479.365 572.912 479.333C572.885 479.302 572.865 479.265 572.852 479.226C572.84 479.186 572.835 479.145 572.838 479.103C572.847 479.021 572.887 478.945 572.949 478.891C573.011 478.837 573.092 478.809 573.174 478.813L589.927 480.152C589.968 480.156 590.008 480.167 590.044 480.186C590.081 480.205 590.113 480.231 590.14 480.262C590.166 480.294 590.186 480.33 590.199 480.37C590.212 480.409 590.217 480.451 590.213 480.492L590.213 480.5Z" fill="#0C0C0C"/>
<path d="M589.886 487.787C589.878 487.869 589.838 487.945 589.776 487.998C589.713 488.05 589.633 488.076 589.552 488.07L576.188 487.002C576.105 486.995 576.028 486.956 575.974 486.892C575.921 486.828 575.894 486.745 575.901 486.661C575.907 486.577 575.946 486.499 576.009 486.445C576.072 486.39 576.154 486.363 576.237 486.37L589.601 487.438C589.642 487.441 589.681 487.453 589.718 487.472C589.754 487.491 589.787 487.517 589.813 487.548C589.84 487.58 589.86 487.616 589.873 487.656C589.885 487.695 589.89 487.737 589.887 487.778L589.886 487.787Z" fill="#0C0C0C"/>
</g>
<path d="M599.683 503.486L716.105 516.736C719.694 517.132 723.325 516.679 726.713 515.414C730.1 514.148 733.153 512.104 735.63 509.442C738.108 506.78 739.943 503.572 740.992 500.07C742.041 496.567 742.275 492.867 741.676 489.257L716.85 388.441C716.341 385.373 715.241 382.437 713.613 379.8C711.984 377.164 709.859 374.878 707.36 373.074C702.311 369.43 696.042 367.969 689.93 369.011C683.819 370.053 678.366 373.514 674.772 378.632C671.177 383.75 669.736 390.105 670.764 396.301L689.804 469.724L605.207 461.166L599.683 503.486Z" fill="#344F68"/>
<path d="M704.979 471.928C705.062 471.934 705.143 471.907 705.206 471.852C705.269 471.797 705.308 471.719 705.314 471.635C705.32 471.552 705.293 471.469 705.239 471.405C705.185 471.342 705.108 471.302 705.025 471.296L690.514 469.093C690.474 469.087 690.432 469.088 690.392 469.098C690.352 469.108 690.315 469.126 690.282 469.15C690.249 469.175 690.221 469.206 690.2 469.242C690.179 469.278 690.165 469.318 690.16 469.359C690.147 469.442 690.168 469.526 690.217 469.593C690.266 469.66 690.34 469.705 690.421 469.718L704.933 471.921C704.948 471.924 704.964 471.927 704.979 471.928Z" fill="#0C0C0C"/>
<path d="M712.864 517.19C712.947 517.196 713.028 517.168 713.09 517.112C713.152 517.057 713.19 516.979 713.196 516.895C713.201 516.811 713.173 516.729 713.118 516.666C713.064 516.603 712.987 516.564 712.904 516.559L600.335 503.247L605.792 461.556L689.804 469.722C689.852 469.728 689.901 469.723 689.947 469.707C689.993 469.69 690.035 469.664 690.069 469.629C690.103 469.593 690.128 469.55 690.142 469.503C690.157 469.455 690.16 469.405 690.152 469.356L681.061 426.439C681.055 426.398 681.04 426.358 681.019 426.323C680.997 426.287 680.969 426.257 680.936 426.233C680.902 426.208 680.864 426.191 680.824 426.182C680.784 426.173 680.742 426.173 680.702 426.18C680.62 426.194 680.548 426.24 680.5 426.308C680.452 426.377 680.433 426.461 680.446 426.544L689.467 469.039L605.555 460.886C605.514 460.881 605.472 460.883 605.432 460.895C605.392 460.906 605.354 460.925 605.322 460.951C605.289 460.977 605.262 461.009 605.241 461.046C605.221 461.083 605.209 461.124 605.204 461.166L599.68 503.489C599.672 503.571 599.695 503.653 599.745 503.718C599.795 503.783 599.869 503.825 599.95 503.836L712.82 517.19C712.835 517.192 712.85 517.192 712.864 517.19Z" fill="#344F68"/>
<path d="M473.558 299.484C473.413 299.043 473.18 298.637 472.875 298.29C472.569 297.943 472.197 297.663 471.781 297.466C471.366 297.27 470.915 297.161 470.456 297.148C469.997 297.134 469.541 297.215 469.114 297.386C468.3 297.745 467.651 298.405 467.298 299.232C466.945 300.058 466.915 300.99 467.213 301.838L468.659 306.222L457.832 294.508C456.648 293.182 454.366 292.326 452.989 293.767C452.424 294.287 452.049 294.985 451.926 295.748C451.802 296.511 451.938 297.294 452.31 297.969C452.294 297.978 452.279 297.988 452.265 298C452.256 298.01 452.249 298.021 452.242 298.032L452.183 297.964C451.847 297.588 451.433 297.292 450.971 297.098C450.509 296.904 450.01 296.816 449.511 296.841C449.011 296.866 448.523 297.003 448.082 297.242C447.641 297.482 447.258 297.817 446.961 298.224C446.499 298.884 446.277 299.685 446.332 300.492C446.386 301.298 446.714 302.061 447.259 302.651L447.855 303.338C447.84 303.373 447.831 303.411 447.829 303.449C447.188 303.019 446.413 302.84 445.651 302.946C444.889 303.052 444.191 303.436 443.688 304.026C443.084 304.687 442.75 305.556 442.754 306.456C442.758 307.357 443.099 308.222 443.709 308.878C443.614 308.858 443.654 309.041 443.575 309.113C443.533 309.155 443.504 309.209 443.492 309.268C442.811 309.026 442.073 309.012 441.384 309.226C440.695 309.441 440.092 309.873 439.663 310.46C439.201 311.12 438.979 311.921 439.033 312.727C439.088 313.534 439.415 314.297 439.96 314.886L456.206 333.09C458.479 335.636 461.45 337.437 464.739 338.26C468.028 339.084 471.484 338.893 474.665 337.712L484.907 333.91L473.558 299.484Z" fill="#E98862"/>
<path opacity="0.2" d="M444.732 320.398C445.332 321.048 446.147 321.452 447.022 321.535C447.134 321.546 447.248 321.552 447.363 321.552C447.919 321.559 448.47 321.434 448.97 321.186C449.469 320.938 449.905 320.575 450.241 320.125C450.577 319.676 450.804 319.152 450.903 318.597C451.003 318.042 450.973 317.471 450.815 316.931C451.323 317.28 451.91 317.495 452.521 317.557C452.637 317.568 452.755 317.574 452.873 317.574C453.453 317.581 454.026 317.449 454.545 317.188C455.064 316.927 455.515 316.545 455.859 316.073C456.204 315.601 456.434 315.052 456.529 314.473C456.624 313.893 456.582 313.299 456.406 312.739C456.89 313.05 457.437 313.242 458.007 313.301C458.123 313.312 458.241 313.318 458.359 313.318C458.868 313.321 459.372 313.218 459.84 313.016C460.308 312.813 460.73 312.515 461.08 312.14C461.73 311.395 462.078 310.43 462.056 309.436C462.034 308.442 461.642 307.494 460.96 306.78L453.758 298.921C453.73 298.889 453.696 298.864 453.659 298.846C453.622 298.828 453.581 298.817 453.54 298.815C453.498 298.814 453.457 298.82 453.418 298.834C453.379 298.849 453.343 298.871 453.313 298.9C453.283 298.928 453.258 298.963 453.241 299.001C453.224 299.039 453.215 299.081 453.214 299.123C453.213 299.165 453.22 299.207 453.235 299.246C453.25 299.285 453.273 299.321 453.301 299.351L460.505 307.213C461.08 307.808 461.412 308.601 461.435 309.434C461.458 310.267 461.17 311.078 460.629 311.705C460.337 312.016 459.986 312.263 459.596 312.432C459.206 312.601 458.787 312.688 458.363 312.687C457.939 312.686 457.52 312.598 457.131 312.427C456.742 312.257 456.392 312.008 456.101 311.695C456.048 311.638 455.641 311.217 455.478 311.042L448.459 303.263C448.404 303.2 448.327 303.162 448.244 303.157C448.162 303.153 448.081 303.181 448.019 303.237C447.958 303.293 447.92 303.371 447.915 303.455C447.911 303.538 447.939 303.62 447.994 303.683L455.019 311.469C455.594 312.064 455.926 312.857 455.949 313.69C455.972 314.523 455.685 315.334 455.143 315.961C454.851 316.272 454.5 316.519 454.111 316.688C453.722 316.857 453.303 316.944 452.879 316.943C452.456 316.943 452.037 316.855 451.648 316.685C451.259 316.515 450.909 316.266 450.618 315.955L444.1 308.947C444.044 308.887 443.967 308.853 443.886 308.85C443.805 308.847 443.726 308.877 443.666 308.932C443.606 308.987 443.57 309.064 443.565 309.146C443.56 309.228 443.587 309.309 443.639 309.371L449.434 315.638C449.989 316.212 450.31 316.978 450.333 317.782C450.355 318.586 450.077 319.368 449.555 319.973C449.273 320.273 448.934 320.512 448.559 320.675C448.183 320.838 447.779 320.922 447.37 320.921C446.962 320.92 446.558 320.836 446.183 320.672C445.808 320.508 445.469 320.268 445.188 319.968L444.732 320.398Z" fill="#0C0C0C"/>
<path d="M458.331 301.74C457.603 301.741 456.903 301.454 456.381 300.939C454.432 299.026 452.136 297.076 451.468 296.766C448.66 295.492 444.404 294.863 443.002 294.728C442.632 294.697 442.271 294.593 441.941 294.42C441.612 294.247 441.319 294.009 441.081 293.72C440.842 293.432 440.663 293.098 440.552 292.739C440.442 292.379 440.403 292.001 440.439 291.627C440.474 291.252 440.582 290.888 440.757 290.556C440.932 290.224 441.17 289.93 441.458 289.692C441.745 289.454 442.077 289.277 442.433 289.17C442.789 289.063 443.162 289.028 443.531 289.069C443.775 289.092 449.541 289.664 453.759 291.577C455.74 292.476 459.253 295.845 460.283 296.856C460.683 297.25 460.959 297.756 461.074 298.31C461.19 298.864 461.139 299.44 460.93 299.965C460.72 300.489 460.361 300.938 459.898 301.255C459.435 301.571 458.889 301.74 458.331 301.74Z" fill="#E98862"/>
<path d="M426.662 301.357L427.54 293.062L489.217 298.943L488.338 307.237L426.662 301.357Z" fill="#367CFF"/>
<path opacity="0.5" d="M426.662 301.357L427.54 293.062L489.217 298.943L488.338 307.237L426.662 301.357Z" fill="white"/>
<path d="M495.123 307.956L496 299.662L489.217 298.943L488.338 307.237L495.123 307.956Z" fill="#262626"/>
<path d="M426.662 301.357C426.662 301.357 424.623 299.899 422.799 298.588C421.354 297.548 420.045 296.6 420 296.544C421.028 295.967 422.089 295.453 423.178 295.005C425.234 294.072 427.54 293.062 427.54 293.062L426.662 301.357Z" fill="#367CFF"/>
<path opacity="0.9" d="M426.662 301.357C426.662 301.357 424.623 299.899 422.799 298.588C421.354 297.548 420.045 296.6 420 296.544C421.028 295.967 422.089 295.453 423.178 295.005C425.234 294.072 427.54 293.062 427.54 293.062L426.662 301.357Z" fill="white"/>
<path d="M422.801 298.588C421.356 297.548 420.047 296.6 420.002 296.544C421.03 295.967 422.091 295.453 423.18 295.005L422.801 298.588Z" fill="#262626"/>
<path d="M426.953 298.776L488.615 304.507L488.577 304.885L426.915 299.155L426.953 298.776Z" fill="white"/>
<path d="M427.295 295.531L488.957 301.261L488.919 301.64L427.257 295.909L427.295 295.531Z" fill="white"/>
<path d="M469.132 307.853L467.213 301.838C466.914 300.989 466.945 300.058 467.297 299.232C467.65 298.405 468.3 297.745 469.114 297.386C469.541 297.215 469.997 297.134 470.456 297.148C470.914 297.161 471.365 297.27 471.781 297.466C472.197 297.663 472.569 297.943 472.875 298.29C473.18 298.637 473.413 299.043 473.558 299.484L476.91 309.654" fill="#E98862"/>
<path d="M512.745 436.411C508.533 436.41 504.4 435.255 500.783 433.069C497.165 430.883 494.197 427.746 492.193 423.991L445.709 333.904L484.321 312.626L524.37 384.719L592.951 364.481L603.929 411.113L519.164 435.496C517.077 436.102 514.916 436.41 512.745 436.411Z" fill="#344F68"/>
<path d="M577.406 418.947C577.33 418.948 577.255 418.92 577.198 418.868C577.141 418.817 577.104 418.746 577.095 418.669L575.23 402.551C575.225 402.51 575.228 402.468 575.239 402.428C575.25 402.388 575.269 402.351 575.294 402.318C575.32 402.286 575.351 402.259 575.387 402.238C575.423 402.218 575.462 402.205 575.503 402.2C575.585 402.192 575.667 402.216 575.731 402.268C575.796 402.319 575.838 402.395 575.848 402.477L577.713 418.594C577.718 418.636 577.715 418.677 577.704 418.717C577.693 418.757 577.674 418.795 577.649 418.827C577.623 418.86 577.592 418.887 577.556 418.908C577.52 418.928 577.481 418.941 577.44 418.945C577.429 418.947 577.418 418.947 577.406 418.947Z" fill="#0C0C0C"/>
<path d="M522.301 500.325L485.633 372.714C484.989 370.471 483.734 368.517 482.049 367.132C480.364 365.746 478.334 365 476.251 365H326.866C325.309 365 323.773 365.417 322.386 366.218C320.999 367.018 319.798 368.179 318.883 369.606C317.968 371.032 317.364 372.684 317.121 374.425C316.878 376.167 317.002 377.949 317.484 379.625L354.152 507.237C354.796 509.479 356.051 511.433 357.736 512.819C359.422 514.205 361.451 514.951 363.534 514.951H512.919C514.476 514.95 516.011 514.533 517.399 513.732C518.786 512.932 519.986 511.771 520.901 510.344C521.816 508.918 522.42 507.266 522.664 505.525C522.907 503.784 522.783 502.002 522.301 500.325Z" fill="#344F68"/>
<path d="M592.388 504.603H492.391C489.899 504.603 487.878 506.89 487.878 509.711V509.842C487.878 512.663 489.899 514.951 492.391 514.951H592.388C594.88 514.951 596.9 512.663 596.9 509.842V509.711C596.9 506.89 594.88 504.603 592.388 504.603Z" fill="#405971"/>
<path d="M419.892 463.939C428.545 463.939 435.56 455.997 435.56 446.2C435.56 436.403 428.545 428.461 419.892 428.461C411.239 428.461 404.224 436.403 404.224 446.2C404.224 455.997 411.239 463.939 419.892 463.939Z" fill="#C5C5C5"/>
<path d="M383.259 294.175C375.75 295.942 369.107 289.138 365.725 282.639C361.745 274.992 360.106 266.074 355.122 259.008C350.65 252.784 344.138 248.636 336.92 247.414C333.643 246.794 330.285 246.871 327.036 247.642C325.525 248.047 324.05 248.591 322.626 249.27C316.463 252.166 311.484 257.395 307.615 263.222C303.039 270.111 299.879 278.062 297.712 286.177C295.266 295.503 294.018 305.146 294.003 314.837C293.934 325.118 295.212 335.359 297.797 345.256C300.47 355.56 304.733 365.306 310.407 374.085C316.477 383.362 324.147 391.294 333 397.447C337.903 400.842 343.104 403.71 348.527 406.011C355.018 408.668 361.875 410.14 368.816 410.368C383.98 411.076 399.375 407.266 413.095 400.397C416.478 398.704 419.764 396.795 422.936 394.679C423.942 394.007 423.018 392.29 422.006 392.965C409.01 401.603 394.303 406.811 379.084 408.162C371.958 408.857 364.777 408.436 357.763 406.913C351.76 405.437 345.975 403.079 340.568 399.906C331.154 394.614 322.793 387.388 315.955 378.635C309.713 370.52 304.838 361.29 301.553 351.362C298.367 341.764 296.495 331.717 295.997 321.538C295.484 311.905 296.177 302.241 298.06 292.808C299.675 284.359 302.518 276.239 306.485 268.747C309.853 262.567 314.275 256.813 319.917 253.046C322.414 251.314 325.182 250.085 328.087 249.417C335.033 247.896 342.65 250.188 348.324 254.591C351.248 256.894 353.696 259.827 355.514 263.203C357.577 266.962 359.008 271.06 360.517 275.098C361.981 279.015 363.494 282.99 365.787 286.443C367.893 289.753 370.679 292.496 373.929 294.459C376.917 296.25 380.401 296.829 383.751 296.09C384.909 295.818 384.419 293.908 383.26 294.177L383.259 294.175Z" fill="#367CFF"/>
</g>
<defs>
<clipPath id="clip0_77_666">
<rect width="792" height="516" fill="white"/>
</clipPath>
</defs>
</svg>
