<svg width="100" height="100" viewBox="0 0 100 100" fill="none" xmlns="http://www.w3.org/2000/svg">
<path d="M19.7406 68.8936L17.775 67.9123L30.2156 54.5811L33.1469 57.7217L19.7406 68.8936ZM62.5 80.0061L17.775 32.0873L19.6469 31.1529L62.5 70.4373V80.0061ZM62.5 33.2623L46.1032 46.9248L41.3938 42.6061L62.5 19.9936V33.2623ZM81.25 74.4779L68.75 81.9779V18.0186L81.25 25.5186V74.4779Z" fill="#1F9CF0"/>
<path d="M85.9844 21.0719L67.2344 9.82187C67.15 9.77187 67.0563 9.74687 66.9657 9.70624C65.725 8.96249 64.1219 9.09687 63.0938 10.1969L36.7844 38.3875L22.2844 25.0937C21.8172 24.6675 21.232 24.3925 20.6057 24.3049C19.9794 24.2174 19.3412 24.3213 18.775 24.6031L11.2407 28.3687C10.8068 28.5866 10.4295 28.9025 10.1389 29.2914C9.8482 29.6804 9.65204 30.1316 9.56593 30.6094C9.47983 31.0873 9.50613 31.5786 9.64277 32.0445C9.7794 32.5104 10.0226 32.9381 10.3532 33.2937L25.9438 50L10.3532 66.7062C10.0214 67.0613 9.77706 67.489 9.63967 67.9551C9.50229 68.4213 9.47563 68.913 9.56182 69.3913C9.648 69.8696 9.84465 70.3211 10.1361 70.71C10.4276 71.0989 10.8058 71.4143 11.2407 71.6312L18.775 75.4C19.3186 75.673 19.9302 75.7808 20.5344 75.7103C21.1386 75.6398 21.7089 75.394 22.175 75.0031L37.4219 62.2969L63.0938 89.8031C63.3858 90.1168 63.7394 90.367 64.1324 90.538C64.5255 90.709 64.9495 90.7971 65.3782 90.7969C65.9579 90.7781 66.5208 90.5973 67.0032 90.275C67.0782 90.2375 67.1594 90.2219 67.2313 90.1781L85.9813 78.9281C86.4441 78.6508 86.8272 78.2584 87.0934 77.7891C87.3595 77.3198 87.4996 76.7895 87.5 76.25V23.75C87.4999 23.2108 87.3603 22.6807 87.0947 22.2114C86.8291 21.7422 86.4466 21.3496 85.9844 21.0719ZM19.7407 68.8937L17.775 67.9125L30.2157 54.5812L33.1469 57.7219L19.7407 68.8937ZM62.5 80.0062L17.775 32.0875L19.6469 31.1531L62.5 70.4375V80.0062ZM62.5 61.9562L50.7532 51.1875L62.5 41.4V61.9562ZM62.5 33.2625L46.1032 46.925L41.3938 42.6062L62.5 19.9937V33.2625ZM81.25 74.4781L68.75 81.9781V18.0187L81.25 25.5187V74.4781Z" fill="#0065A9"/>
</svg>
